<svg xmlns="http://www.w3.org/2000/svg" xmlns:xlink="http://www.w3.org/1999/xlink" viewBox="0 0 2829.22 2794.4"><defs><style>.cls-1{isolation:isolate;}.cls-2{fill:url(#linear-gradient);}.cls-3{fill:#bdd0fb;}.cls-4{fill:#fff;mix-blend-mode:soft-light;}.cls-5{fill:#91b3fa;}.cls-6{fill:url(#linear-gradient-2);}.cls-7{fill:#fcfafa;}.cls-8{fill:url(#linear-gradient-3);}.cls-9{fill:url(#linear-gradient-4);}.cls-10{fill:url(#linear-gradient-5);}.cls-11{fill:url(#linear-gradient-6);}.cls-12{fill:url(#linear-gradient-7);}.cls-13{fill:url(#linear-gradient-8);}.cls-14{fill:url(#linear-gradient-9);}.cls-15{fill:url(#linear-gradient-10);}.cls-16{fill:url(#linear-gradient-11);}.cls-17{fill:url(#linear-gradient-12);}.cls-18{fill:url(#linear-gradient-13);}.cls-19{fill:url(#linear-gradient-14);}.cls-20{fill:url(#linear-gradient-15);}.cls-21{fill:url(#linear-gradient-16);}.cls-22{fill:url(#linear-gradient-17);}.cls-23{fill:url(#linear-gradient-18);}.cls-24{fill:url(#linear-gradient-19);}.cls-25{fill:url(#linear-gradient-20);}</style><linearGradient id="linear-gradient" x1="2732.75" y1="2875.16" x2="863.02" y2="857.04" gradientUnits="userSpaceOnUse"><stop offset="0" stop-color="#dae3fe"/><stop offset="1" stop-color="#e9effd"/></linearGradient><linearGradient id="linear-gradient-2" x1="1090.84" y1="661.19" x2="-1058.34" y2="4674.36" gradientTransform="matrix(-1, 0, 0, 1, 2805.3, 0)" gradientUnits="userSpaceOnUse"><stop offset="0" stop-color="#ff928e"/><stop offset="1" stop-color="#fe7062"/></linearGradient><linearGradient id="linear-gradient-3" x1="-209.87" y1="5997.12" x2="1638.97" y2="-250.69" xlink:href="#linear-gradient-2"/><linearGradient id="linear-gradient-4" x1="2291.24" y1="1223.04" x2="34.21" y2="5437.6" xlink:href="#linear-gradient-2"/><linearGradient id="linear-gradient-5" x1="13083.49" y1="2724.5" x2="13225.11" y2="2724.5" gradientTransform="translate(-13062.16)" gradientUnits="userSpaceOnUse"><stop offset="0" stop-color="#09005d"/><stop offset="1" stop-color="#1a0f91"/></linearGradient><linearGradient id="linear-gradient-6" x1="13097.85" y1="2658.69" x2="13155.29" y2="2658.69" gradientTransform="translate(-13062.16)" gradientUnits="userSpaceOnUse"><stop offset="0" stop-color="#febbba"/><stop offset="1" stop-color="#ff928e"/></linearGradient><linearGradient id="linear-gradient-7" x1="13384.67" y1="2722.24" x2="13606.89" y2="2722.24" xlink:href="#linear-gradient-5"/><linearGradient id="linear-gradient-8" x1="13388.05" y1="2633.19" x2="13445.17" y2="2633.19" xlink:href="#linear-gradient-6"/><linearGradient id="linear-gradient-9" x1="13062.16" y1="2126.5" x2="13451.59" y2="2126.5" xlink:href="#linear-gradient-5"/><linearGradient id="linear-gradient-10" x1="89.58" y1="1847.59" x2="164" y2="1847.59" gradientUnits="userSpaceOnUse"><stop offset="0" stop-color="#4f52ff"/><stop offset="1" stop-color="#4042e2"/></linearGradient><linearGradient id="linear-gradient-11" x1="220.37" y1="2386.52" x2="613.36" y2="723.14" xlink:href="#linear-gradient-10"/><linearGradient id="linear-gradient-12" x1="13745.86" y1="986.71" x2="13958.15" y2="986.71" xlink:href="#linear-gradient-6"/><linearGradient id="linear-gradient-13" x1="739.63" y1="975.59" x2="45.51" y2="2108.64" xlink:href="#linear-gradient-10"/><linearGradient id="linear-gradient-14" x1="14250.94" y1="1006.86" x2="13792.23" y2="1577.54" xlink:href="#linear-gradient-6"/><linearGradient id="linear-gradient-15" x1="13734.89" y1="661.97" x2="13290.62" y2="1478.26" xlink:href="#linear-gradient-6"/><linearGradient id="linear-gradient-16" x1="11124.03" y1="11007.74" x2="10927.69" y2="11267.48" gradientTransform="translate(-14903.78 -1765.73) rotate(-35.22)" xlink:href="#linear-gradient-6"/><linearGradient id="linear-gradient-17" x1="740.76" y1="502.23" x2="451.35" y2="1017.09" gradientTransform="matrix(1, 0, 0, 1, 0, 0)" xlink:href="#linear-gradient-5"/><linearGradient id="linear-gradient-18" x1="10836.47" y1="11213.43" x2="10993.95" y2="11051.86" gradientTransform="translate(-14903.78 -1765.73) rotate(-35.22)" xlink:href="#linear-gradient-6"/><linearGradient id="linear-gradient-19" x1="728.79" y1="756" x2="2089.09" y2="756" xlink:href="#linear-gradient-10"/><linearGradient id="linear-gradient-20" x1="14351.29" y1="1030.07" x2="13836.38" y2="1670.67" xlink:href="#linear-gradient-6"/></defs><g class="cls-1"><g id="Layer_2" data-name="Layer 2"><g id="Illustration"><path class="cls-2" d="M2472.19,1725.11c-256.91,600.51-935.09,858.44-1466.44,814.46-145.09-12-437-36.17-664.92-251.71C-96.88,1873.93-29.47,1008.69,389.55,499.29,443.51,433.69,817-5.82,1399.06.06c426.14,4.31,725.25,245,761.62,275C2206.62,313,2308,403,2399.28,545.81,2613.87,881.38,2632.74,1349.85,2472.19,1725.11Z"/><path class="cls-3" d="M2828.51,862.69c4.15-12.8-10.78-23.32-21.57-15.28-109.56,81.71-379.05,333.05-375.08,826.27,5,618.82-147.47,827.09-321.18,945,0,0,224.61-39.18,387.05-249.63C2896.54,1852.3,2754.75,1090.35,2828.51,862.69Z"/><path class="cls-4" d="M2731.5,1044.77c-20.1,66.54-38.89,133.44-55.2,200.94q-25,101.08-43.76,203.49c-12.21,68.27-23.14,136.76-31.15,205.61-8.31,68.82-13.66,137.91-18.79,207.3-5.51,69.32-10.67,139.18-23,208.73s-33,138.48-65.69,201.72c-8.17,15.75-16.67,31.42-26,46.44-9.06,15.19-18.79,30-28.79,44.6a754.79,754.79,0,0,1-66.32,83.07c-48.28,52-104.46,96.71-164.88,133a13.44,13.44,0,0,1-14.19-22.82l0,0c14.45-9.26,28.77-18.66,42.62-28.68,7-4.89,13.79-10.09,20.66-15.16,6.67-5.32,13.55-10.38,20-15.9a707.78,707.78,0,0,0,74.13-70.3c46.11-50.09,85-107.33,116.34-167.68a676.83,676.83,0,0,0,39-94.15,766.78,766.78,0,0,0,25-99.27c12.48-67.44,18.16-136.55,24.17-205.83s12.71-138.86,22.17-208.06q7-51.91,15.77-103.54c2.84-17.23,6-34.39,9.15-51.55q5-25.71,10.24-51.34,21.4-102.47,49.1-203.39c18.79-67.15,39.36-133.77,62.46-199.49a3.6,3.6,0,0,1,6.85,2.24Z"/><path class="cls-5" d="M2236,1659.75c7,23.79,36,32.71,55.36,17.2,106.78-85.58,386.78-354.84,390-827.2,2.7-398.89,42.07-614.93,66.74-711.77,5.22-20.47-18.73-35.71-35.09-22.33C2532.53,263.23,1982.52,797.63,2236,1659.75Z"/><path class="cls-4" d="M2269.51,1662a9.5,9.5,0,0,0,1.6,1,9.7,9.7,0,0,0,12.95-4.45c2.66-5.45,266.43-551,295.25-1105.46a9.68,9.68,0,0,0-19.34-1c-28.61,550.43-290.67,1092.55-293.31,1098A9.68,9.68,0,0,0,2269.51,1662Z"/><path class="cls-6" d="M2171.51,1817.47c22.83,36.6,46.72,88.83,40.92,141.07-10.61,95.48-157,137.91-285.39,84.87-91.49-37.81-52.54-161.88-22.63-230,9.48-21.59-6.2-45.81-29.77-45.81H1544.09V1395.26c0-32.51,34.41-53.42,63.23-38.37,34.53,18,79.94,37.16,127.73,44.7,100.78,15.91,201.56-95.48,191-201.56s-111.39-185.65-217.48-180.35c-36.51,1.83-66.92,17-91.11,36.19-28.12,22.26-69.58,1.53-69.58-34.33V696.12H2467.9a47,47,0,0,1,47,46.88l2.52,1024.59H2198.94C2173.33,1767.59,2158,1795.74,2171.51,1817.47Z"/><path class="cls-7" d="M2042.8,2073.45a312.52,312.52,0,0,1-118.36-23.75c-25.27-10.45-43-27.9-52.63-51.87-22-54.81,2.16-132,26.37-187.17a25.87,25.87,0,0,0-2-24.62,25.31,25.31,0,0,0-21.53-11.65H1537.29V1395.26a50,50,0,0,1,73.18-44.4c44.06,23,86.33,37.81,125.64,44,41.24,6.52,85.81-9.51,122.28-44,42.75-40.38,66.06-97.93,60.84-150.2-4.9-49-29.93-94.24-70.47-127.34-39.5-32.27-90.51-49.38-139.9-46.88-30.72,1.54-60.07,13.22-87.23,34.72a49,49,0,0,1-52.13,5.62,50,50,0,0,1-28.47-45.28V689.32H2467.9A53.87,53.87,0,0,1,2521.69,743l2.54,1031.41H2198.94a25.27,25.27,0,0,0-22.38,13.15,25.63,25.63,0,0,0,.72,26.33h0c22.49,36,48,90.53,41.92,145.42-3.89,35-24.56,64.43-59.79,85.26C2126.92,2063.77,2086,2073.45,2042.8,2073.45Zm-491.91-312.67h323.75a39.42,39.42,0,0,1,36,55.35c-19,43.18-47.56,123.54-26.2,176.61,8.23,20.46,23.44,35.39,45.2,44.38,75.91,31.37,165.46,29.66,222.85-4.28,31.4-18.57,49.79-44.52,53.18-75,5.66-51-18.59-102.5-39.94-136.72a39.32,39.32,0,0,1,33.21-60.29h311.65L2508.08,743a40.24,40.24,0,0,0-40.18-40.08H1554.64v318.61a36.46,36.46,0,0,0,20.79,33,35,35,0,0,0,37.75-4c29.43-23.3,61.39-36,95-37.64,53.48-2.68,106.49,15.05,149.19,49.92,43.36,35.41,70.14,83.9,75.4,136.54,5.63,56.37-19.28,118.23-65,161.45-39.56,37.37-88.3,54.7-133.75,47.51-40.77-6.43-84.45-21.7-129.82-45.39a36.42,36.42,0,0,0-53.28,32.34Z"/><path class="cls-8" d="M1544.09,2786v-311.8c0-31-31.62-52.3-60.19-40.2a367.32,367.32,0,0,1-126.29,28.44c-115.86,5.3-204.07-90.17-186.49-222.78s130.37-164.44,185.37-148.52c28.71,8.31,78.57,40.16,119.68,68.71,28.69,19.94,67.92-.62,67.92-35.57v-356.7h330.55c23.57,0,39.25,24.22,29.77,45.81-29.91,68.13-68.86,192.2,22.63,230,128.34,53,274.78,10.61,285.39-84.87,5.8-52.24-18.09-104.47-40.92-141.07-13.56-21.73,1.82-49.88,27.43-49.88h318.47l5.19,984.21a34,34,0,0,1-34,34.21Z"/><path class="cls-7" d="M2488.57,2792.82H1537.29V2474.21a36.77,36.77,0,0,0-16.52-30.72,35.76,35.76,0,0,0-34.22-3.22,372.47,372.47,0,0,1-128.63,29c-56.92,2.58-108.45-18-145.12-58-40.17-43.78-57.37-105.05-48.42-172.51,9.78-73.76,47.33-112.44,77.12-131.9,43.92-28.69,90.41-29.93,116.88-22.27,24.31,7,65.25,30.48,121.67,69.67a36.46,36.46,0,0,0,57.24-30V1760.78h337.35a39.42,39.42,0,0,1,36,55.35c-19,43.18-47.56,123.54-26.2,176.61,8.23,20.46,23.44,35.39,45.2,44.38,75.91,31.37,165.46,29.66,222.85-4.28,31.4-18.57,49.79-44.52,53.18-75,5.66-51-18.59-102.5-39.94-136.72a39.32,39.32,0,0,1,33.21-60.29h325.24l5.22,991a40.83,40.83,0,0,1-40.83,41.05Zm-937.68-13.61h937.68a27.23,27.23,0,0,0,27.22-27.37l-5.15-977.45h-311.7a25.27,25.27,0,0,0-22.38,13.15,25.63,25.63,0,0,0,.72,26.33c22.49,36,48,90.53,41.91,145.42-3.88,35-24.55,64.43-59.78,85.26-61.82,36.57-154.06,38.59-235,5.15-25.27-10.45-43-27.9-52.63-51.87-22-54.81,2.16-132,26.37-187.17a25.87,25.87,0,0,0-2-24.62,25.31,25.31,0,0,0-21.53-11.65H1550.89v349.9a50.05,50.05,0,0,1-78.6,41.16c-54.43-37.8-95.12-61.23-117.69-67.77-25.57-7.39-68.16-3.9-105.66,20.59-27.4,17.9-62,53.65-71.07,122.29-8.41,63.41,7.56,120.77,45,161.53,33.91,37,81.64,56,134.47,53.56a359,359,0,0,0,124-27.91,49.82,49.82,0,0,1,47,4.4,50.36,50.36,0,0,1,22.6,42.07Z"/><path class="cls-9" d="M635.33,2787.59A36.31,36.31,0,0,1,599,2751.28v-262.4c0-33.84.67-348.07.67-382.49V1759.63H919.78c26.39,0,41.87-30,26.27-51.28-74.94-102.2-9.55-247.66,46.39-272.28,66.31-29.18,201.57-37.13,241.35,111.39,20.72,77.37,1.7,133.86-21.28,170.24-13.68,21.66,1.63,49.89,27.26,49.89h304.32v356.7c0,34.95-39.23,55.51-67.92,35.57-41.11-28.55-91-60.4-119.68-68.71-55-15.92-167.79,15.91-185.37,148.52s70.63,228.08,186.49,222.78A367.32,367.32,0,0,0,1483.9,2434c28.57-12.1,60.19,9.17,60.19,40.2V2786Z"/><path class="cls-7" d="M635.27,2794.4a43.14,43.14,0,0,1-43.12-43.12v-262.4c0-16.85.17-103.21.34-189.93.17-87.46.34-175.28.34-192.56V1752.83H919.78a25.24,25.24,0,0,0,22.89-14.09,24.83,24.83,0,0,0-2.11-26.37c-46.39-63.26-36.79-134.35-26.95-171.1,13.95-52,45.24-97.85,76.09-111.43,39.61-17.43,105.76-28.24,161.8-1.36,43.75,21,73.65,60.43,88.86,117.22,21.87,81.64.06,140.57-22.1,175.64a25.52,25.52,0,0,0-.83,26.28,25.17,25.17,0,0,0,22.33,13.16h311.13v363.51a50.05,50.05,0,0,1-78.6,41.16c-54.43-37.8-95.12-61.23-117.69-67.77-25.57-7.39-68.16-3.9-105.66,20.59-27.4,17.9-62,53.65-71.07,122.29-8.41,63.41,7.56,120.77,45,161.53,33.91,37,81.64,56,134.47,53.56a359,359,0,0,0,124-27.91,49.82,49.82,0,0,1,47,4.4,50.37,50.37,0,0,1,22.6,42.07V2792.8l-915.54,1.6Zm.05-13.61v0l902-1.57v-305a36.77,36.77,0,0,0-16.52-30.72,35.76,35.76,0,0,0-34.22-3.22,372.47,372.47,0,0,1-128.63,29c-56.92,2.58-108.45-18-145.12-58-40.17-43.78-57.37-105.05-48.42-172.51,9.78-73.76,47.33-112.44,77.12-131.9,43.92-28.69,90.41-29.93,116.88-22.27,24.31,7,65.25,30.48,121.67,69.67a36.46,36.46,0,0,0,57.24-30v-349.9H1239.76a39.21,39.21,0,0,1-33-60.32c20.7-32.77,41-88,20.46-164.85-14.14-52.78-41.6-89.28-81.61-108.47-51.87-24.89-113.46-14.72-150.43,1.55-27.34,12-55.47,54.18-68.42,102.49-9.22,34.4-18.25,100.85,24.77,159.53a38.71,38.71,0,0,1,3.28,40.57,39.11,39.11,0,0,1-35,21.55H606.43v339.95c0,17.28-.16,105.12-.33,192.58-.17,86.72-.34,173.06-.34,189.91v262.4a29.53,29.53,0,0,0,29.51,29.51Z"/><path class="cls-10" d="M41,2674.6s-15.74,24.8-19.7,94.26a11.31,11.31,0,0,0,11.24,12H155.66a7.26,7.26,0,0,0,6.91-9.54c-7.22-21.35-29-73.4-77.68-103.14Z"/><path class="cls-11" d="M35.69,2627.53l7,58.38a11,11,0,0,0,9.59,9.65,97.37,97.37,0,0,0,26-.25,18,18,0,0,0,14.87-17.88v-56.37Z"/><path class="cls-12" d="M345.57,2668.16S322,2704.78,322.52,2755a21.74,21.74,0,0,0,21.87,21.27H535.55a9.15,9.15,0,0,0,5.26-16.64c-36.17-25.4-107.27-72.86-158.7-91.51Z"/><path class="cls-13" d="M325.88,2605.12l14.85,72.09a14.87,14.87,0,0,0,17.59,11.7,53.81,53.81,0,0,0,16.8-7,17.06,17.06,0,0,0,7.62-17.42l-15.36-87.34Z"/><path class="cls-14" d="M63,1602.78s-51.63,45.51-61.34,100.28,27.53,944.87,27.53,944.87,51.62,8.59,78.24-7.54c0,0,31.57-577.67,55.56-711.16,0,0,125.83,598.4,160.69,706.52,0,0,49.74,6.05,65.78-3.41,0,0-33-775.69-74.37-913.6Z"/><path class="cls-15" d="M161.45,1907.4a2.55,2.55,0,0,1-2.47-1.9l-21.68-83.17-46.54-29.85a2.55,2.55,0,0,1,2.75-4.3l47.39,30.4a2.6,2.6,0,0,1,1.09,1.5l21.93,84.13a2.55,2.55,0,0,1-1.83,3.11A2.34,2.34,0,0,1,161.45,1907.4Z"/><path class="cls-16" d="M548.1,1114.6c-217.35-18-274.16,26.93-274.16,26.93l104.45,164.89S592,1302.21,745,1184.26c-28.64-30.84-48.53-64.93-61.28-91.47C644.24,1109.19,598.8,1118.8,548.1,1114.6Z"/><path class="cls-17" d="M888.46,795.56A6.66,6.66,0,0,0,875.77,793L848,852.19a61.78,61.78,0,0,0-4.92,36.69l9.73,34.44a59.43,59.43,0,0,1-12.13,47.32c-25.48,31.86-79.75,90-157,122.15,12.75,26.54,32.64,60.63,61.28,91.47,56.15-43.28,104.16-101.84,130.47-181.16A29.09,29.09,0,0,0,896,974.19Z"/><path class="cls-18" d="M644,1184.06c-76.51-82.45-222.26-119.7-306.64-135a77.39,77.39,0,0,0-86.5,49.08c-38,102.07-141.25,367.64-161.27,413.28-16.42,37.45-33.57,74-44.46,96.88A27.46,27.46,0,0,0,58,1644.88c71,34.22,198.73,72.93,250.52,88a17.77,17.77,0,0,0,22.74-17.1,55.52,55.52,0,0,1,7.91-28.57l196.14-326.84C657.51,1496,764.57,1508.35,846.81,1478.68a618.49,618.49,0,0,1-27.22-128.45C698.09,1329.41,644,1184.06,644,1184.06Z"/><path class="cls-19" d="M1020.41,1327.48l-21.92-29.24c-71,48.75-130.32,60.31-178.9,52a618.49,618.49,0,0,0,27.22,128.45C955.16,1439.6,1020.41,1327.48,1020.41,1327.48Z"/><path class="cls-20" d="M453.44,897.64l-65.18,159s74.89,51.84,135.14,46.91l32.53-143Z"/><path class="cls-21" d="M563.54,789.21c1.49,2.12,47.15,167.07,47.15,167.07L516,980.34l-66.5-149.9S538.54,753.81,563.54,789.21Z"/><path class="cls-22" d="M485.12,853.21,514,934.87a12.22,12.22,0,0,0,1.5,2.92c3.92,5.56,18.78,23.7,36.41,7.36,16-14.82,30.81-28.12,44.5-30.53a12.1,12.1,0,0,1,13.76,8.68c4.14,15,12.86,48.94,15.93,79.58a12.07,12.07,0,0,1-9.81,13c-18.51,3.51-57.74,9.83-90.49,7.52a12.1,12.1,0,0,1-10.2-7c-9-19.72-36.68-79.56-47-95-9.66-14.54-33.32-14.13-43.25-13.25a11.9,11.9,0,0,1-8.91-2.91c-8.68-7.62-25.21-27.05-2-50.31a12.12,12.12,0,0,0-.28-17.44c-10-9.38-20.66-26-4-46.68,16.91-21,39.23-17.64,52.9-12.65a12.1,12.1,0,0,0,14.56-5.38c1.71-2.88,4.7-5.06,9.87-4.62a11.91,11.91,0,0,0,12.71-12.22c-.24-13.44,4.58-30.43,27.9-37.69,41.38-12.88,67.19,27.1,69.75,56.94s-43.11,41.25-70,39.23c-20.42-1.53-35.57,18.71-41.67,28.5A12,12,0,0,0,485.12,853.21Z"/><path class="cls-23" d="M479.38,951s-6.68-51.79-28.23-54.33-42.51,15.17-21.09,44.24C456.7,977,479.38,951,479.38,951Z"/><path class="cls-24" d="M1362.4,1254.55c23.38-37,42.73-94.49,21.65-173.21C1343.57,930.23,1206,938.33,1138.5,968c-56.92,25-123.44,173-47.2,277,15.87,21.65.12,52.18-26.72,52.18H738.85L728.79,251.49a44.37,44.37,0,0,1,44.77-44.79l930,8.48V546.27c0,36.48,42.18,57.57,70.78,34.92,24.62-19.49,55.56-35,92.71-36.82C1975,539,2077.52,619.93,2088.31,727.86S1996.57,949.12,1894,932.93c-48.62-7.67-94.81-27.14-130-45.48-29.32-15.31-64.33,6-64.33,39V1305.3H1390.13C1364.06,1305.3,1348.48,1276.59,1362.4,1254.55Z"/><path class="cls-25" d="M1005,1328l123.53,4.81,69.21-121.16c3.32-5.82-1.63-13.13-8.21-11.81-30.13,6-53.64,44.24-64.42,65.1a22.51,22.51,0,0,1-22.15,12c-21.31-2-58.78-5.34-76.88-5.36-21.7,0-33.69,24.92-32,35.49.34,2.16.62,3.46.62,3.46Z"/></g></g></g></svg>