<svg xmlns="http://www.w3.org/2000/svg" xmlns:xlink="http://www.w3.org/1999/xlink" viewBox="0 0 1004 1004"><defs><style>.cls-1{fill:url(#linear-gradient);}.cls-2{fill:url(#linear-gradient-2);}</style><linearGradient id="linear-gradient" x1="385.54" y1="273.97" x2="631.74" y2="645.98" gradientUnits="userSpaceOnUse"><stop offset="0" stop-color="#3b7acd"/><stop offset="0.34" stop-color="#3a76ca"/><stop offset="0.67" stop-color="#386bc3"/><stop offset="0.99" stop-color="#3358b5"/><stop offset="1" stop-color="#3357b5"/></linearGradient><linearGradient id="linear-gradient-2" x1="163.29" y1="-9.8" x2="879.33" y2="1072.16" gradientUnits="userSpaceOnUse"><stop offset="0" stop-color="#3783d6"/><stop offset="0.19" stop-color="#367dd2"/><stop offset="0.45" stop-color="#336bc5"/><stop offset="0.75" stop-color="#2f4fb1"/><stop offset="1" stop-color="#2a329d"/></linearGradient></defs><g id="Layer_2" data-name="Layer 2"><g id="Layer_2-2" data-name="Layer 2"><ellipse class="cls-1" cx="502" cy="449.94" rx="171.89" ry="172.91"/><path class="cls-2" d="M502,0C224.75,0,0,224.75,0,502s224.75,502,502,502,502-224.75,502-502S779.25,0,502,0Zm65.69,733.17c13.77,3.57,34,8.69,59.5,8.67A197.38,197.38,0,0,0,701.56,727q23.57,40.29,47.1,80.57a196,196,0,0,1-69.41,22.31c-22.61,2.73-41.07.74-59.5-1.24a401.92,401.92,0,0,1-54.54-9.92c-36-8.75-38.79-13.71-60.73-16.11a169,169,0,0,0-50.82,2.48,172.65,172.65,0,0,0-71.89,33.47q-25.68-41.74-51.34-83.47a222.37,222.37,0,0,1,73.23-38.34A284.45,284.45,0,0,1,219.19,449.94c0-157.11,126.62-284.47,282.81-284.47S784.81,292.83,784.81,449.94c0,138.92-99,254.6-229.93,279.5C558.6,730.65,562.8,731.9,567.69,733.17Z"/></g></g></svg>