<svg xmlns="http://www.w3.org/2000/svg" xmlns:xlink="http://www.w3.org/1999/xlink" viewBox="0 0 2274.09 784.68"><defs><style>.cls-1{fill:url(#linear-gradient);}.cls-2{fill:url(#linear-gradient-2);}</style><linearGradient id="linear-gradient" x1="301.32" y1="214.12" x2="493.74" y2="504.87" gradientUnits="userSpaceOnUse"><stop offset="0" stop-color="#3b7acd"/><stop offset="0.34" stop-color="#3a76ca"/><stop offset="0.67" stop-color="#386bc3"/><stop offset="0.99" stop-color="#3358b5"/><stop offset="1" stop-color="#3357b5"/></linearGradient><linearGradient id="linear-gradient-2" x1="127.62" y1="-7.66" x2="687.24" y2="837.95" gradientUnits="userSpaceOnUse"><stop offset="0" stop-color="#3783d6"/><stop offset="0.19" stop-color="#367dd2"/><stop offset="0.45" stop-color="#336bc5"/><stop offset="0.75" stop-color="#2f4fb1"/><stop offset="1" stop-color="#2a329d"/></linearGradient></defs><g id="Layer_2" data-name="Layer 2"><g id="Layer_2-2" data-name="Layer 2"><ellipse class="cls-1" cx="392.34" cy="351.65" rx="134.34" ry="135.14"/><path class="cls-2" d="M392.34,0C175.66,0,0,175.66,0,392.34S175.66,784.68,392.34,784.68,784.68,609,784.68,392.34,609,0,392.34,0Zm51.34,573c10.76,2.79,26.61,6.79,46.5,6.78a154.22,154.22,0,0,0,58.13-11.63q18.41,31.5,36.81,63a152.94,152.94,0,0,1-54.25,17.44c-17.67,2.13-32.1.58-46.5-1a314.83,314.83,0,0,1-42.63-7.75c-28.11-6.84-30.32-10.71-47.46-12.59a132,132,0,0,0-39.72,1.94,134.94,134.94,0,0,0-56.19,26.15l-40.12-65.23a173.56,173.56,0,0,1,57.23-30,222.31,222.31,0,0,1-144.17-208.5c0-122.79,99-222.32,221-222.32s221,99.53,221,222.32c0,108.58-77.39,199-179.7,218.44C436.57,571,439.86,572,443.68,573Z"/><path d="M858.28,680.19V104.3H977.52V318.94h237.71V104.3h119.24V680.19H1215.23V424.89H977.52v255.3Z"/><path d="M1792,255.21v425H1680.54V629.75q-24.24,30.88-56.49,46.33t-72.53,15.44q-70,0-105-36.75t-35-109.86V255.21h113.77V512.07q0,45.36,15.25,64.71T1591,596.13q39.88,0,63.53-24t23.65-65.48V255.21Z"/><path d="M1863.19,104.3h110.64V308q21.12-33.23,53-50.24t72.52-17q77,0,125.89,63.54t48.87,165.18q0,100.86-48.87,163t-127.45,62.16q-41.05,0-71.35-17.2t-54.93-54.74v57.48h-108.3ZM2161.1,464.77q0-58.65-24.63-92.08t-67.63-33.42q-45.36,0-70.18,32.64t-24.83,92.86q0,64.89,23.65,98.52t69,33.62q46.13,0,70.37-33.82T2161.1,464.77Z"/></g></g></svg>