<svg xmlns="http://www.w3.org/2000/svg" xmlns:xlink="http://www.w3.org/1999/xlink" viewBox="0 0 4967 1410.7"><defs><style>.cls-1{fill:url(#linear-gradient);}.cls-2{fill:url(#linear-gradient-2);}</style><linearGradient id="linear-gradient" x1="541.71" y1="384.95" x2="887.64" y2="907.65" gradientUnits="userSpaceOnUse"><stop offset="0" stop-color="#3b7acd"/><stop offset="0.34" stop-color="#3a76ca"/><stop offset="0.67" stop-color="#386bc3"/><stop offset="0.99" stop-color="#3358b5"/><stop offset="1" stop-color="#3357b5"/></linearGradient><linearGradient id="linear-gradient-2" x1="229.44" y1="-13.77" x2="1235.53" y2="1506.47" gradientUnits="userSpaceOnUse"><stop offset="0" stop-color="#3783d6"/><stop offset="0.19" stop-color="#367dd2"/><stop offset="0.45" stop-color="#336bc5"/><stop offset="0.75" stop-color="#2f4fb1"/><stop offset="1" stop-color="#2a329d"/></linearGradient></defs><g id="Layer_2" data-name="Layer 2"><g id="Layer_2-2" data-name="Layer 2"><ellipse class="cls-1" cx="705.35" cy="632.2" rx="241.53" ry="242.95"/><path class="cls-2" d="M705.35,0C315.8,0,0,315.8,0,705.35S315.8,1410.7,705.35,1410.7s705.35-315.8,705.35-705.35S1094.9,0,705.35,0Zm92.3,1030.16c19.35,5,47.84,12.21,83.6,12.19,23.22,0,60.56-3.08,104.5-20.9q33.09,56.61,66.18,113.2c-40.2,21.55-75.28,28.67-97.53,31.35-31.77,3.83-57.7,1-83.6-1.74a568.78,568.78,0,0,1-76.63-13.93c-50.54-12.3-54.51-19.26-85.34-22.64a237,237,0,0,0-71.4,3.48c-46.84,9.46-81,31.38-101,47q-36.07-58.65-72.13-117.28c19.69-15.5,54.82-39.5,102.89-53.86C415.82,950.6,308,804.08,308,632.2c0-220.75,177.91-399.7,397.37-399.7s397.36,179,397.36,399.7c0,195.2-139.12,357.73-323.07,392.71C784.87,1026.62,790.77,1028.38,797.65,1030.16Z"/><path d="M2630.07,80.37v1306h-262V830.66H1808.67v555.7h-262V80.37h262v537h559.45v-537Z"/><path d="M3754.56,349.8V1386.36H3490.74v-131q-50.5,67.36-131.91,105.72T3182,1399.46q-121.65,0-215.17-51.45T2820,1196.45q-53.32-100.07-53.32-238.56V349.8h261.94V920.47q0,123.49,61.75,189.91t168.39,66.43q108.49,0,170.27-66.43t61.74-189.91V349.8Z"/><path d="M4290.61,379.74q88.85-46.75,203-46.78,132.84,0,240.43,65.49t170.27,186.17Q4967,705.3,4967,864.34t-62.68,281.59q-62.71,122.58-170.27,189.92t-240.43,67.35q-116,0-203-45.84t-139.39-118.81v147.81h-262V1.78h262V501.36Q4201.74,426.54,4290.61,379.74Zm351.76,322.75q-38.37-68.28-101-103.84T4405.68,563.1q-71.13,0-133.78,36.49t-101,105.71q-38.39,69.24-38.36,162.78t38.36,162.78q38.32,69.26,101,105.72t133.78,36.48a259.77,259.77,0,0,0,135.65-37.42q62.67-37.4,101-106.65t38.36-164.65Q4680.73,770.8,4642.37,702.49Z"/></g></g></svg>