<svg xmlns="http://www.w3.org/2000/svg" xmlns:xlink="http://www.w3.org/1999/xlink" viewBox="0 0 2806.09 2800"><defs><style>.cls-1{isolation:isolate;}.cls-2{fill:url(#linear-gradient);}.cls-3{fill:#bdd0fb;}.cls-25,.cls-31,.cls-4{fill:#fff;}.cls-4{mix-blend-mode:soft-light;}.cls-5{fill:#91b3fa;}.cls-6{fill:url(#linear-gradient-2);}.cls-7{fill:#fcfcfc;}.cls-8{fill:url(#linear-gradient-3);}.cls-9{opacity:0.3;}.cls-10{fill:url(#linear-gradient-4);}.cls-11{fill:url(#linear-gradient-5);}.cls-12{fill:url(#linear-gradient-6);}.cls-13{fill:url(#linear-gradient-7);}.cls-14{fill:url(#linear-gradient-8);}.cls-15{fill:url(#linear-gradient-9);}.cls-16{fill:url(#linear-gradient-10);}.cls-17{fill:url(#linear-gradient-11);}.cls-18{fill:url(#linear-gradient-12);}.cls-19{fill:url(#linear-gradient-13);}.cls-20{fill:url(#linear-gradient-14);}.cls-21{fill:url(#linear-gradient-15);}.cls-22{fill:url(#linear-gradient-16);}.cls-23{fill:url(#linear-gradient-17);}.cls-24{fill:url(#linear-gradient-18);}.cls-26{fill:url(#linear-gradient-19);}.cls-27{fill:url(#linear-gradient-20);}.cls-28{fill:url(#linear-gradient-21);}.cls-29{fill:url(#linear-gradient-22);}.cls-30{fill:url(#linear-gradient-23);}.cls-31{opacity:0.58;}.cls-32{fill:url(#linear-gradient-24);}.cls-33{fill:url(#linear-gradient-25);}.cls-34{fill:url(#linear-gradient-26);}.cls-35{fill:url(#linear-gradient-27);}.cls-36{fill:url(#linear-gradient-28);}.cls-37{fill:url(#linear-gradient-29);}.cls-38{fill:url(#linear-gradient-30);}.cls-39{fill:url(#linear-gradient-31);}.cls-40{fill:url(#linear-gradient-32);}.cls-41{fill:url(#linear-gradient-33);}.cls-42{fill:url(#linear-gradient-34);}.cls-43{fill:url(#linear-gradient-35);}.cls-44{fill:url(#linear-gradient-36);}.cls-45{fill:url(#linear-gradient-37);}.cls-46{fill:url(#linear-gradient-38);}.cls-47{fill:url(#linear-gradient-39);}.cls-48{fill:url(#linear-gradient-40);}.cls-49{fill:url(#linear-gradient-41);}.cls-50{fill:url(#linear-gradient-42);}.cls-51{fill:url(#linear-gradient-43);}.cls-52{fill:url(#linear-gradient-44);}.cls-53{fill:url(#linear-gradient-45);}.cls-54{fill:url(#linear-gradient-46);}.cls-55{fill:url(#linear-gradient-47);}.cls-56{fill:url(#linear-gradient-48);}</style><linearGradient id="linear-gradient" x1="3040.75" y1="2837.41" x2="958.77" y2="1015.68" gradientUnits="userSpaceOnUse"><stop offset="0" stop-color="#dae3fe"/><stop offset="1" stop-color="#e9effd"/></linearGradient><linearGradient id="linear-gradient-2" x1="-611.2" y1="5881.71" x2="1727.08" y2="-2020.05" gradientTransform="matrix(-1, 0, 0, 1, 2782.18, 0)" gradientUnits="userSpaceOnUse"><stop offset="0" stop-color="#4f52ff"/><stop offset="1" stop-color="#4042e2"/></linearGradient><linearGradient id="linear-gradient-3" x1="1005.19" y1="4273.53" x2="3315.78" y2="-3534.65" xlink:href="#linear-gradient-2"/><linearGradient id="linear-gradient-4" x1="1141.73" y1="1474.93" x2="1174.3" y2="1463.64" gradientUnits="userSpaceOnUse"><stop offset="0" stop-color="#febbba"/><stop offset="1" stop-color="#ff928e"/></linearGradient><linearGradient id="linear-gradient-5" x1="1373.52" y1="1535.6" x2="1847.73" y2="1018.69" gradientUnits="userSpaceOnUse"><stop offset="0" stop-color="#09005d"/><stop offset="1" stop-color="#1a0f91"/></linearGradient><linearGradient id="linear-gradient-6" x1="1589.99" y1="1734.18" x2="2064.2" y2="1217.28" xlink:href="#linear-gradient-5"/><linearGradient id="linear-gradient-7" x1="544.05" y1="1174.84" x2="495.59" y2="1029.45" gradientTransform="translate(1290.1)" xlink:href="#linear-gradient-4"/><linearGradient id="linear-gradient-8" x1="1697.58" y1="926.3" x2="1871.76" y2="1002.03" xlink:href="#linear-gradient-4"/><linearGradient id="linear-gradient-9" x1="4575.68" y1="5129.33" x2="4783.75" y2="5129.33" gradientTransform="matrix(-0.69, -0.73, -0.73, 0.69, 8694.37, 846.58)" xlink:href="#linear-gradient-5"/><linearGradient id="linear-gradient-10" x1="1686.73" y1="951.27" x2="1860.91" y2="1027" xlink:href="#linear-gradient-4"/><linearGradient id="linear-gradient-11" x1="1821.5" y1="2789.53" x2="2037.97" y2="2789.53" gradientTransform="matrix(-1, 0, 0, 1, 3849.85, 0)" xlink:href="#linear-gradient-2"/><linearGradient id="linear-gradient-12" x1="2550.86" y1="2587" x2="1767.03" y2="2810.41" xlink:href="#linear-gradient-5"/><linearGradient id="linear-gradient-13" x1="1841.48" y1="2687.87" x2="1902.46" y2="2687.87" gradientTransform="matrix(-1, 0, 0, 1, 3849.85, 0)" xlink:href="#linear-gradient-4"/><linearGradient id="linear-gradient-14" x1="1389.94" y1="2784.86" x2="1472.9" y2="2784.86" gradientTransform="matrix(-1, 0, 0, 1, 3849.85, 0)" xlink:href="#linear-gradient-2"/><linearGradient id="linear-gradient-15" x1="2113.88" y1="2541.59" x2="2602.36" y2="2859.67" xlink:href="#linear-gradient-5"/><linearGradient id="linear-gradient-16" x1="1453.83" y1="2637.04" x2="1526.71" y2="2637.04" gradientTransform="matrix(-1, 0, 0, 1, 3849.85, 0)" xlink:href="#linear-gradient-4"/><linearGradient id="linear-gradient-17" x1="-889.44" y1="2744.04" x2="222.53" y2="1206.68" gradientTransform="matrix(-1, 0, 0, 1, 1516.85, 0)" xlink:href="#linear-gradient-5"/><linearGradient id="linear-gradient-18" x1="2025.41" y1="1727.86" x2="2052.38" y2="1923.39" gradientUnits="userSpaceOnUse"><stop offset="0" stop-color="#e1473d"/><stop offset="1" stop-color="#e9605a"/></linearGradient><linearGradient id="linear-gradient-19" x1="-424.35" y1="2447.5" x2="-427.35" y2="2374.62" gradientTransform="translate(2044.12 -670.68) rotate(-7.3)" xlink:href="#linear-gradient-18"/><linearGradient id="linear-gradient-20" x1="-428.15" y1="2338.09" x2="-413.12" y2="2546.94" gradientTransform="translate(2044.12 -670.68) rotate(-7.3)" xlink:href="#linear-gradient-18"/><linearGradient id="linear-gradient-21" x1="-221.32" y1="2439.14" x2="-224.33" y2="2366.26" gradientTransform="translate(2044.12 -670.68) rotate(-7.3)" xlink:href="#linear-gradient-18"/><linearGradient id="linear-gradient-22" x1="-225.67" y1="2323.53" x2="-210.65" y2="2532.39" gradientTransform="translate(2044.12 -670.68) rotate(-7.3)" xlink:href="#linear-gradient-18"/><linearGradient id="linear-gradient-23" x1="-309.07" y1="2221.84" x2="-329.35" y2="2370.57" gradientTransform="translate(2044.12 -670.68) rotate(-7.3)" gradientUnits="userSpaceOnUse"><stop offset="0" stop-color="#ff928e"/><stop offset="1" stop-color="#fe7062"/></linearGradient><linearGradient id="linear-gradient-24" x1="2046.23" y1="2115.29" x2="2043.98" y2="1856.84" gradientTransform="matrix(1, 0, 0, 1, 0, 0)" xlink:href="#linear-gradient-23"/><linearGradient id="linear-gradient-25" x1="2041.78" y1="2025.27" x2="2066.5" y2="1910.66" xlink:href="#linear-gradient-18"/><linearGradient id="linear-gradient-26" x1="-360.36" y1="2605.48" x2="-275.17" y2="2605.48" xlink:href="#linear-gradient-23"/><linearGradient id="linear-gradient-27" x1="2109.49" y1="1527.01" x2="1944.48" y2="1844.35" xlink:href="#linear-gradient-4"/><linearGradient id="linear-gradient-28" x1="1660.57" y1="1798.93" x2="2134.77" y2="1282.02" xlink:href="#linear-gradient-5"/><linearGradient id="linear-gradient-29" x1="2005.19" y1="1295.91" x2="2115.31" y2="862.15" xlink:href="#linear-gradient-5"/><linearGradient id="linear-gradient-30" x1="-728" y1="2732.59" x2="-585.99" y2="2732.59" gradientTransform="translate(1290.1)" xlink:href="#linear-gradient-5"/><linearGradient id="linear-gradient-31" x1="-372.49" y1="2565.06" x2="-889.12" y2="2970.72" gradientTransform="translate(1290.1)" xlink:href="#linear-gradient-2"/><linearGradient id="linear-gradient-32" x1="-688.51" y1="2570.92" x2="-715.63" y2="2807.65" gradientTransform="translate(1290.1)" xlink:href="#linear-gradient-4"/><linearGradient id="linear-gradient-33" x1="-280.71" y1="2681.77" x2="-797.34" y2="3087.43" gradientTransform="translate(1290.1)" xlink:href="#linear-gradient-2"/><linearGradient id="linear-gradient-34" x1="-511.76" y1="2736.2" x2="-307.34" y2="2736.2" gradientTransform="translate(1290.1)" xlink:href="#linear-gradient-5"/><linearGradient id="linear-gradient-35" x1="-362.67" y1="2541.76" x2="-389.8" y2="2778.51" gradientTransform="translate(1020.92 36.43) rotate(-3.61)" xlink:href="#linear-gradient-4"/><linearGradient id="linear-gradient-36" x1="833.57" y1="1705.96" x2="380.63" y2="3139.5" xlink:href="#linear-gradient-5"/><linearGradient id="linear-gradient-37" x1="414.37" y1="1817.57" x2="929.03" y2="1186.04" gradientTransform="matrix(1, 0, 0, 1, 0, 0)" xlink:href="#linear-gradient-23"/><linearGradient id="linear-gradient-38" x1="653.18" y1="1123.34" x2="841.96" y2="1010.97" xlink:href="#linear-gradient-4"/><linearGradient id="linear-gradient-39" x1="859.11" y1="1047.6" x2="748.93" y2="885.7" xlink:href="#linear-gradient-4"/><linearGradient id="linear-gradient-40" x1="654.94" y1="765.53" x2="810.71" y2="947.97" xlink:href="#linear-gradient-5"/><linearGradient id="linear-gradient-41" x1="805.66" y1="1083.98" x2="695.53" y2="922.16" xlink:href="#linear-gradient-4"/><linearGradient id="linear-gradient-42" x1="666.37" y1="1542.46" x2="904.6" y2="1216.59" gradientTransform="matrix(1, 0, 0, 1, 0, 0)" xlink:href="#linear-gradient-23"/><linearGradient id="linear-gradient-43" x1="1292.1" y1="1160.97" x2="895.79" y2="1358.12" xlink:href="#linear-gradient-4"/><linearGradient id="linear-gradient-44" x1="1286.3" y1="1111.53" x2="1150.74" y2="1253.11" xlink:href="#linear-gradient-4"/><linearGradient id="linear-gradient-45" x1="1293.99" y1="1158.64" x2="897.67" y2="1355.78" xlink:href="#linear-gradient-4"/><linearGradient id="linear-gradient-46" x1="1459.6" y1="1493.14" x2="309.46" y2="1285.16" xlink:href="#linear-gradient-4"/><linearGradient id="linear-gradient-47" x1="896.08" y1="988.72" x2="393.12" y2="1759.63" xlink:href="#linear-gradient-18"/><linearGradient id="linear-gradient-48" x1="889.1" y1="984.17" x2="386.14" y2="1755.08" xlink:href="#linear-gradient-18"/></defs><g class="cls-1"><g id="Layer_2" data-name="Layer 2"><g id="Illustration"><path class="cls-2" d="M2686.93,1891.3c-269.08,633.57-985.84,988.5-1607.41,892.76-101.14-15.58-378.43-62-623.92-280.92C-17,2081.68-118.07,1247.13,263.16,659,540.63,231,1038-11.7,1510.64.43c101.8,2.62,491.95,18.73,834.83,301.46,50.36,41.52,161.43,140.2,261.54,296.75C2842.08,966.25,2862.29,1478.4,2686.93,1891.3Z"/><path class="cls-3" d="M131,81.27c-2.59-11,12.94-18.38,22.46-10.67C250,148.93,482.13,383.5,424.29,793.43c-72.57,514.32,51.5,702,205.94,816.46,0,0-212.1-53.83-345.54-244.26C-42.94,898.08,177.11,277.63,131,81.27Z"/><path class="cls-4" d="M204.5,241.91c12.08,57.26,22.85,114.69,31.17,172.38q13,86.46,19.87,173.42c4.29,57.95,7.32,116,7.49,174,.48,58-1.94,116-4.59,174.22-2.28,58.19-5,116.8-.7,175.82s16.58,118.32,41.19,174c6.15,13.88,12.61,27.72,20,41.09,7.06,13.5,14.82,26.72,22.85,39.83a627.85,627.85,0,0,0,54.8,75.37c40.82,47.87,90,90.33,144.28,126.27,5.71,3.78,13.88,2.86,18.27-2.07s3.34-11.74-2.1-15.57l0,0c-12.91-9.06-25.68-18.24-37.93-27.88-6.21-4.74-12.17-9.7-18.24-14.56-5.84-5.06-11.91-9.93-17.57-15.13a625.18,625.18,0,0,1-63.72-65.49c-38.93-46-70.1-97.32-93.71-150.5a508.72,508.72,0,0,1-27.32-82,559.41,559.41,0,0,1-13.17-84.94c-4.65-57.29-2.55-115.31-.75-173.51s3-116.72,1.42-175.19q-1-43.83-3.85-87.62c-.85-14.59-2-29.17-3.17-43.75Q277,608.21,274.7,586.4q-9.4-87.27-25-173.84c-10.75-57.64-23.27-115-38.33-171.86a3.54,3.54,0,0,0-4.19-2.27A3.06,3.06,0,0,0,204.5,241.91Z"/><path class="cls-5" d="M381.22,1312.33a24.31,24.31,0,0,1-39.8-6.77C302.1,1218.76,213.14,963.31,360.07,669,484.15,420.49,527.81,273.94,543,206c3.22-14.36,22.89-16.26,28.83-2.8C637.38,351.77,810.4,857,381.22,1312.33Z"/><path class="cls-4" d="M359.7,1303.17a6.13,6.13,0,0,1-1.29.11,6.74,6.74,0,0,1-6.64-6.85c.06-4.22,8.28-426.1,165.19-779.44a6.74,6.74,0,1,1,12.32,5.47c-155.77,350.77-164,770-164,774.18A6.73,6.73,0,0,1,359.7,1303.17Z"/><path class="cls-6" d="M2060.41,660.66c-37.56-66-66.47-154.71-7.43-221.12,106.62-120,319.87-146.61,373.19,40,22,77.19,6.47,137.19-19.38,181-23.94,40.58,5.58,91.73,52.7,91.73h339.86v453.47c0,40.94-46,64.38-79.64,41-228-158.25-346.89,28.41-347.14,112.41-.28,93.3,40.27,313.22,186.88,306.55,67-3,122.86-25.57,163.78-49.14,33.88-19.52,76.12,4.25,76.12,43.35V2082.6H2447.63c-41.76,0-66.67,46.12-44,81.16,26.1,40.26,48,98.63,49.14,181.71,3,211.46-319.88,173.26-399.84,106.62-57.13-47.6-59.48-200.23-15-294.62,16.43-34.87-10.6-74.87-49.15-74.87H1646.47V1620.09c0-33.72-36.62-54.45-65.61-37.23-58.92,35-149.93,78.92-240.94,82.87-153.27,6.67-173.26-166.6-179.93-299.88-5.89-117.72,218.54-308.27,395.69-192.1,29,19,88.6,46.89,88.6,12.18V752.26H2007.6C2054.65,752.26,2083.68,701.55,2060.41,660.66Z"/><path class="cls-7" d="M2248.77,2511.49a443.44,443.44,0,0,1-55.39-3.57c-61-7.69-116.46-27.1-144.72-50.65-61.64-51.37-60.75-209.36-16.78-302.67,6.61-14,5.53-29.73-3-43.1a47.31,47.31,0,0,0-40.1-22.15H1646.47a6.75,6.75,0,0,1-6.74-6.75V1620.09a36.62,36.62,0,0,0-55.43-31.43c-60.63,36-152.19,79.81-244.08,83.81-70.67,3.14-121.67-31.1-151.45-101.58-25.26-59.78-32.13-137-35.51-204.71-3.22-64.33,56.5-146.56,142-195.54,90.91-52.07,187.18-53,264.13-2.53,26.72,17.53,62.82,32.51,74.55,26.19,1-.53,3.61-2,3.61-8.37V752.26a6.74,6.74,0,0,1,6.74-6.74H2007.6a53.58,53.58,0,0,0,46.8-26.86,54.27,54.27,0,0,0,.15-54.66c-53.67-94.26-56-173.43-6.62-228.94,65.18-73.32,168.76-111.29,251.81-92.36,65.08,14.84,112.28,62.77,132.91,135,19.45,68.09,12.7,130.76-20.05,186.29a54.19,54.19,0,0,0,46.89,81.56h339.86a6.74,6.74,0,0,1,6.74,6.74v453.47a56,56,0,0,1-30.45,50.41,57.69,57.69,0,0,1-59.78-3.83c-113.13-78.53-192.16-66.19-238.54-42-66.66,34.75-97.89,109.4-98,148.91-.21,72.21,23,202.19,87.8,264.31,26.22,25.13,57.09,37,92,35.48,55.44-2.51,109.51-18.74,160.72-48.24a57.33,57.33,0,0,1,57.88-.1,56.33,56.33,0,0,1,28.35,49.29V2082.6a6.74,6.74,0,0,1-6.74,6.75H2447.63a45.71,45.71,0,0,0-38.29,70.75c32.27,49.79,49.17,112.12,50.22,185.27.94,65.28-28.83,114.22-86.08,141.54C2339.5,2503.12,2296.42,2511.49,2248.77,2511.49Zm-595.56-435.63h335.62a60.73,60.73,0,0,1,51.49,28.42,58,58,0,0,1,3.76,56.07c-45.31,96.15-38.52,243.45,13.21,286.57,53,44.18,213.16,74.21,310.39,27.82,52.89-25.24,79.27-68.7,78.4-129.18-1-70.57-17.18-130.5-48.06-178.13a59.2,59.2,0,0,1,49.61-91.57h345V1659.94a43,43,0,0,0-21.62-37.61,44,44,0,0,0-44.4.1c-53.09,30.59-109.22,47.42-166.84,50-38.63,1.78-73-11.44-102-39.22-67.87-65.06-92.17-199.55-92-274.08.13-44.07,32.88-123.1,105.26-160.83,49.67-25.9,133.79-39.48,252.46,42.89a43.65,43.65,0,0,0,45.83,3,42.7,42.7,0,0,0,23.23-38.46V759H2459.49A67.67,67.67,0,0,1,2401,657.1c30.8-52.21,37.09-111.34,18.7-175.72-24.64-86.2-80.45-115.84-122.94-125.53C2218.24,337.93,2120.07,374.2,2058,444c-31.47,35.41-55.59,101.16,8.26,213.31h0a67.64,67.64,0,0,1-.21,68.11A66.92,66.92,0,0,1,2007.6,759H1651v426.93c0,12-5.81,17.6-10.68,20.23-25.75,13.91-85.81-25.1-88.36-26.77-72.55-47.59-163.68-46.51-250,3-80,45.83-138.16,124.58-135.23,183.16,3.33,66.5,10,142.29,34.47,200.14,27.74,65.65,73,96.18,138.44,93.34,89.09-3.87,178.48-46.68,237.79-81.93a50.1,50.1,0,0,1,75.79,43Z"/><path class="cls-8" d="M350.21,1597.55c-40,26.84-92.75,52.93-152.23,58.88C66.27,1669.6,13.6,1524.73,7,1399.61S112.37,1156,211.15,1169.13c46.52,6.2,97.43,35.78,138.27,65.33,33,23.88,79,.4,79-40.32V744.75H883.1c37.89,0,63-39.12,47.17-73.55C894.6,593.67,854.53,475.86,910.41,425c86.84-79,321.44-79,360.95,39.51,22.12,66.37-7.93,146.22-38.67,203.64-18.53,34.62,6.48,76.41,45.75,76.41h388v416.18c0,44.4-50.21,72-86.42,46.3-167.85-119.13-351.16,6.53-368,146.47-19.75,164.62,85.61,302.91,197.56,289.74,56.84-6.69,122.18-38.84,172.72-68.88,37.13-22.06,84.1,4.43,84.1,47.62v459.69H1219.54c-51.14,0-85.35-53.34-63.18-99.43,26.42-54.92,134.67-122.34,128.17-174.37-13.17-105.36-247.76-131.43-374.12-111.81-96.44,15-48.5,165.83,6.31,286.73,21,46.34-12.45,98.88-63.33,98.88H428.46V1638.48C428.46,1598.25,383.62,1575.14,350.21,1597.55Z"/><path class="cls-7" d="M1666.47,2088.43H1219.54a76.42,76.42,0,0,1-65-36,75.38,75.38,0,0,1-4.23-73.13c11.36-23.6,37-49.2,61.71-74,34-34.06,69.27-69.28,65.85-96.65-2.53-20.27-14.39-38.53-35.26-54.26-47.54-35.86-189.06-73.78-331.14-51.73-19.19,3-32.42,11.66-40.46,26.52-22,40.69-4.05,127.4,51.88,250.76a76.51,76.51,0,0,1-69.47,108.41H428.46a6.74,6.74,0,0,1-6.74-6.74V1638.48a42.15,42.15,0,0,0-22.57-37.77,43.34,43.34,0,0,0-45.18,2.44c-51.65,34.67-103.91,54.85-155.32,60-42.49,4.25-79.63-7-110.48-33.5C64.3,1609.15,8,1545.76.28,1400c-3.53-67,27-138.89,79.66-187.5,40.68-37.55,88.85-55.77,132.1-50,40.15,5.35,87.7,27.74,141.33,66.55a43,43,0,0,0,68.35-34.86V744.75a6.74,6.74,0,0,1,6.74-6.74H883.1a45.1,45.1,0,0,0,41-64c-40-87-75.7-201.72-18.27-254,55-50.09,169.16-70.8,259.77-47.13,58.12,15.17,97.94,47,112.12,89.49,23.06,69.21-8.55,151.84-39.12,209a45.12,45.12,0,0,0,39.8,66.48h388a6.75,6.75,0,0,1,6.74,6.75v416.18a62.81,62.81,0,0,1-34.24,55.93c-20.66,10.67-44.14,9.12-62.82-4.14-71.13-50.48-151.08-60.21-225.14-27.39-71.81,31.82-123.71,98.22-132.22,169.17-10.78,89.79,16.84,180,72.09,235.34,35,35.08,76.87,51.75,118,46.91,57.37-6.75,124.15-40.7,170.07-68a62.29,62.29,0,0,1,94.28,53.42v459.69A6.74,6.74,0,0,1,1666.47,2088.43Zm-669.6-405c88.42,0,195.14,16,253.83,60.27,23.89,18,37.52,39.33,40.52,63.35,4.24,33.92-33.35,71.51-69.7,107.87-24,23.95-48.73,48.73-59.08,70.26a61.9,61.9,0,0,0,3.49,60.11,63,63,0,0,0,53.61,29.66h440.19V1622a48.81,48.81,0,0,0-73.91-41.82c-47,28-115.66,62.75-175.38,69.78-45.24,5.33-91.13-12.71-129.11-50.78-58.09-58.23-87.19-152.67-75.93-246.47,9.07-75.57,64.08-146.18,140.15-179.89,78.58-34.81,163.25-24.61,238.4,28.73,14.5,10.28,32.75,11.46,48.84,3.15a49.4,49.4,0,0,0,26.94-44V751.31H1278.44A58.61,58.61,0,0,1,1226.75,665c29.33-54.79,59.76-133.68,38.21-198.33-12.68-38.07-49.17-66.73-102.72-80.71C1075.57,363.32,967,382.67,915,430c-23.23,21.13-51.33,80.2,21.44,238.38a58.59,58.59,0,0,1-53.29,83.11H435.2v442.65a56.52,56.52,0,0,1-89.73,45.78c-51.08-37-97.83-59.12-135.21-64.11-39.27-5.24-83.45,11.74-121.17,46.56-49.8,46-78.67,113.74-75.35,176.88C18.88,1496.8,50,1579.09,97,1619.4c27.94,24,61.7,34.21,100.35,30.32,49.18-4.91,99.35-24.35,149.14-57.77h0a57.36,57.36,0,0,1,59-3.13,55.4,55.4,0,0,1,29.71,49.66V2075H853.39a62.59,62.59,0,0,0,52.82-28.75,63.23,63.23,0,0,0,4.37-60.61C852,1856.42,834.7,1768,859.12,1722.85c10-18.57,26.94-29.81,50.26-33.43C933.76,1685.63,964.06,1683.43,996.87,1683.43Z"/><g class="cls-9"><path class="cls-5" d="M2127.3,460.5a8.42,8.42,0,0,1-9.61-5.88c-2.72-9.12-5.08-18.49-7-27.86a8.42,8.42,0,0,1,6.54-10l.16,0a8.43,8.43,0,0,1,9.8,6.58c1.84,8.9,4.08,17.8,6.65,26.46a8.42,8.42,0,0,1-5.67,10.48A6.34,6.34,0,0,1,2127.3,460.5Zm-13-72.24c-.33.06-.66.1-1,.13a8.43,8.43,0,0,1-9-7.84c-.64-9.54-.88-19.2-.71-28.71a8.43,8.43,0,0,1,16.85.3c-.16,9,.06,18.22.67,27.28A8.42,8.42,0,0,1,2114.35,388.26Zm3.27-73.29a8.45,8.45,0,0,1-9.87-9.61c1.49-9.42,3.42-18.89,5.72-28.15a8.42,8.42,0,1,1,16.35,4.06c-2.18,8.79-4,17.79-5.43,26.73A8.43,8.43,0,0,1,2117.62,315Zm19.59-70.74a8.43,8.43,0,0,1-9.36-11.43c3.57-8.85,7.56-17.66,11.87-26.17a8.42,8.42,0,0,1,15,7.61c-4.09,8.08-7.88,16.44-11.27,24.86A8.42,8.42,0,0,1,2137.21,244.23Zm34.86-64.59a8.42,8.42,0,0,1-8.47-13.08c5.43-7.83,11.27-15.53,17.36-22.88a8.42,8.42,0,1,1,13,10.74c-5.79,7-11.34,14.31-16.49,21.74A8.38,8.38,0,0,1,2172.07,179.64Zm48.29-55.27a8.42,8.42,0,0,1-7.25-14.49c7-6.44,14.44-12.66,22-18.47a8.42,8.42,0,1,1,10.28,13.35c-7.18,5.53-14.21,11.43-20.89,17.55A8.38,8.38,0,0,1,2220.36,124.37Zm299.75-76.44a8.42,8.42,0,0,1-3.56-.11c-8.79-2.16-17.79-4-26.75-5.38a8.43,8.43,0,1,1,2.61-16.65c9.44,1.48,18.92,3.39,28.17,5.67a8.43,8.43,0,0,1-.47,16.47ZM2279.65,81.21a8.43,8.43,0,0,1-5.71-15.61c8.29-4.71,16.88-9.12,25.55-13.1a8.42,8.42,0,1,1,7,15.3c-8.23,3.79-16.39,8-24.27,12.45A8.58,8.58,0,0,1,2279.65,81.21Zm167.68-42.7a8.57,8.57,0,0,1-1.69.14c-9-.14-18.23.1-27.29.73a8.42,8.42,0,0,1-1.16-16.81c9.53-.66,19.19-.92,28.72-.77a8.43,8.43,0,0,1,1.42,16.71ZM2347.1,52.37a8.42,8.42,0,0,1-4-16.35c9.13-2.73,18.49-5.11,27.84-7.06l.18,0a8.42,8.42,0,0,1,3.26,16.53c-8.88,1.85-17.77,4.11-26.44,6.71A7,7,0,0,1,2347.1,52.37Z"/><path class="cls-5" d="M2576,67.22a8.3,8.3,0,0,1-5-.6c-4-1.78-8-3.51-12.08-5.14a8.42,8.42,0,1,1,6.29-15.63c4.26,1.71,8.54,3.53,12.71,5.41a8.42,8.42,0,0,1-1.92,16Z"/></g><g class="cls-9"><path class="cls-5" d="M2750.5,255.71a8.43,8.43,0,0,1-9.47-5.45c-1.47-4.08-3-8.21-4.68-12.26a8.43,8.43,0,0,1,15.62-6.33c1.72,4.26,3.38,8.61,4.92,12.92a8.42,8.42,0,0,1-5.09,10.77A9,9,0,0,1,2750.5,255.71Z"/><path class="cls-5" d="M2502.29,689q-5.72,1.06-11.51,1.95a8.43,8.43,0,1,1-2.54-16.66c8.92-1.36,17.75-3.08,26.37-5.13a8.42,8.42,0,1,1,3.9,16.39C2513.18,686.78,2507.73,687.94,2502.29,689Zm-55.83,5.63a9.62,9.62,0,0,1-1.43.14c-9.4.15-18.91-.11-28.26-.75a8.42,8.42,0,1,1,1.15-16.8c8.88.6,17.92.84,26.85.7a8.43,8.43,0,0,1,1.69,16.71Zm114.36-22.32a8.42,8.42,0,0,1-4.59-16.13c8.3-3.23,16.57-6.85,24.58-10.78a8.42,8.42,0,0,1,7.41,15.13c-8.44,4.14-17.15,8-25.88,11.35A7.68,7.68,0,0,1,2560.82,672.27Zm-186.28,15.48a8.58,8.58,0,0,1-3.27,0c-9.19-1.92-18.41-4.26-27.4-7a8.42,8.42,0,1,1,4.82-16.14c8.54,2.55,17.3,4.77,26,6.6a8.43,8.43,0,0,1-.18,16.53Zm250.24-48.93a8.43,8.43,0,0,1-6.26-15.27c7.38-5,14.65-10.32,21.61-15.92a8.43,8.43,0,1,1,10.55,13.14c-7.32,5.89-15,11.52-22.74,16.76A8.39,8.39,0,0,1,2624.78,638.82Zm55.07-46.67a8.42,8.42,0,0,1-7.67-14.07c6.13-6.48,12.06-13.3,17.62-20.26A8.42,8.42,0,0,1,2703,568.34c-5.85,7.32-12.09,14.5-18.54,21.32A8.44,8.44,0,0,1,2679.85,592.15Zm43.59-57.57a8.42,8.42,0,0,1-8.78-12.6c4.58-7.67,8.88-15.61,12.79-23.62a8.43,8.43,0,0,1,15.14,7.4c-4.12,8.42-8.65,16.79-13.46,24.85A8.43,8.43,0,0,1,2723.44,534.58Zm30-65.71a8.31,8.31,0,0,1-4.18-.28,8.42,8.42,0,0,1-5.37-10.63c2.79-8.48,5.25-17.17,7.31-25.84a8.42,8.42,0,0,1,16.39,3.89c-2.17,9.13-4.75,18.29-7.69,27.21A8.41,8.41,0,0,1,2753.43,468.87Zm14.84-70.71a8.41,8.41,0,0,1-9.94-9.08c.85-8.86,1.33-17.88,1.43-26.8a8.43,8.43,0,1,1,16.85.19c-.11,9.39-.61,18.88-1.51,28.21A8.43,8.43,0,0,1,2768.27,398.16ZM2767.21,326l-.51.08a8.41,8.41,0,0,1-9.4-7.32c-.81-6.51-1.84-13.08-3-19.53q-.66-3.49-1.38-7a8.42,8.42,0,0,1,16.49-3.46q.77,3.64,1.45,7.33c1.27,6.77,2.34,13.69,3.19,20.54A8.42,8.42,0,0,1,2767.21,326Z"/><path class="cls-5" d="M2305.72,665.15a8.43,8.43,0,0,1-5-.61c-4.15-1.9-8.34-3.91-12.45-6a8.42,8.42,0,1,1,7.62-15c3.9,2,7.88,3.89,11.82,5.69a8.42,8.42,0,0,1-2,15.94Z"/></g><path class="cls-5" d="M2298.94,567a3.92,3.92,0,0,0,4.55.38l41.17-24.52a208.7,208.7,0,0,0,64.43,20.57l19.35,43.81a3.93,3.93,0,0,0,3.93,2.33l57.28-4.81a3.93,3.93,0,0,0,3.48-3l11.77-46.42a208.73,208.73,0,0,0,60.08-31l44.69,17.31a3.93,3.93,0,0,0,4.43-1.13l37.1-43.91a3.93,3.93,0,0,0,.37-4.55l-24.52-41.18a208.93,208.93,0,0,0,20.58-64.42l43.8-19.35a3.94,3.94,0,0,0,2.34-3.93L2689,305.9a3.94,3.94,0,0,0-2.95-3.49l-46.43-11.76a208.63,208.63,0,0,0-31-60.09l17.3-44.69a3.92,3.92,0,0,0-1.13-4.42l-43.91-37.1a3.92,3.92,0,0,0-4.55-.38l-41.17,24.53a208.45,208.45,0,0,0-64.43-20.58l-19.35-43.81a3.93,3.93,0,0,0-3.93-2.33l-57.28,4.81a3.93,3.93,0,0,0-3.48,3L2374.83,156A209,209,0,0,0,2314.75,187l-44.69-17.31a4,4,0,0,0-4.43,1.13l-37.1,43.91a4,4,0,0,0-.37,4.56l24.52,41.17a209,209,0,0,0-20.58,64.42l-43.81,19.35a4,4,0,0,0-2.33,3.94l4.82,57.27a3.94,3.94,0,0,0,2.95,3.49l46.43,11.76a208.63,208.63,0,0,0,31,60.09l-17.3,44.69a3.93,3.93,0,0,0,1.13,4.43Z"/><path class="cls-3" d="M2450.45,412.49a57.83,57.83,0,1,1,8.2-2.17A59.81,59.81,0,0,1,2450.45,412.49Zm-18.64-100.38a45.42,45.42,0,0,0-6.35,1.68,44.1,44.1,0,1,0,6.35-1.68Z"/><path class="cls-3" d="M2466.94,494.3c-4.75.89-9.58,1.54-14.46,2h0c-1.54.13-3.08.23-4.62.31a143.93,143.93,0,0,1-22.75-.63l-.3,0-.88-.11-1.69-.2a3.38,3.38,0,0,1-2.88-2.72,3.13,3.13,0,0,1,0-1.06,3.37,3.37,0,0,1,3.77-2.91,135.46,135.46,0,0,0,137.35-71.5,134.57,134.57,0,0,0,15-74.06,136.67,136.67,0,0,0-1.87-13.8,135.36,135.36,0,0,0-144.32-109.72c-74.39,6.26-129.77,71.84-123.52,146.19a137.36,137.36,0,0,0,1.84,13.63,135,135,0,0,0,23.09,54,3.42,3.42,0,0,1,.58,1.35,3.37,3.37,0,0,1-6.05,2.59,141.58,141.58,0,0,1-24.24-56.71q-1.32-7.08-1.94-14.3c-6.56-78.07,51.63-146.91,129.67-153.48a142.14,142.14,0,0,1,151.52,115.18,144.61,144.61,0,0,1,1.95,14.49,142.07,142.07,0,0,1-115.2,151.52Z"/><g class="cls-9"><path class="cls-5" d="M1885.51,731.55a5.18,5.18,0,0,1-5.59-2.75c-2-3.94-3.91-8-5.67-12a5.2,5.2,0,0,1,9.54-4.15c1.68,3.86,3.5,7.73,5.41,11.48a5.21,5.21,0,0,1-2.28,7A5.32,5.32,0,0,1,1885.51,731.55Z"/><path class="cls-5" d="M1870.73,694.36a5.2,5.2,0,0,1-6-3.64,227.3,227.3,0,0,1-5.34-22.26c-.29-1.57-.57-3.16-.84-4.75a5.4,5.4,0,0,1,4.29-6,5.2,5.2,0,0,1,6,4.28c.25,1.52.52,3,.8,4.54a217.56,217.56,0,0,0,5.09,21.22,5.21,5.21,0,0,1-3.51,6.47Zm-8.81-53.3c-.24,0-.49.07-.74.09a5.22,5.22,0,0,1-5.42-5,224.34,224.34,0,0,1,.54-27.69,5.2,5.2,0,1,1,10.37.85,215.37,215.37,0,0,0-.51,26.41A5.21,5.21,0,0,1,1861.92,641.06Zm4.39-53.85a5.29,5.29,0,0,1-2,0,5.21,5.21,0,0,1-4-6.16,225.17,225.17,0,0,1,7.33-26.72,5.21,5.21,0,0,1,9.85,3.37,212.46,212.46,0,0,0-7,25.48A5.2,5.2,0,0,1,1866.31,587.21Zm17.49-51.12a5.2,5.2,0,0,1-5.63-7.39,224.64,224.64,0,0,1,13.64-24.11,5.2,5.2,0,1,1,8.73,5.67,215.52,215.52,0,0,0-13,23A5.17,5.17,0,0,1,1883.8,536.09Zm29.44-45.3a5.2,5.2,0,0,1-4.94-8.46,227.48,227.48,0,0,1,19.08-20.06,5.2,5.2,0,1,1,7.09,7.61,218.13,218.13,0,0,0-18.2,19.15A5.15,5.15,0,0,1,1913.24,490.79ZM1952.79,454a5.2,5.2,0,0,1-4-9.33,222.48,222.48,0,0,1,23.39-14.8,5.2,5.2,0,1,1,5,9.12,213.64,213.64,0,0,0-22.3,14.11A5.22,5.22,0,0,1,1952.79,454Zm47.32-26a5.21,5.21,0,0,1-2.88-10,228.13,228.13,0,0,1,26.33-8.61,5.21,5.21,0,1,1,2.62,10.08,214.11,214.11,0,0,0-25.11,8.21A5.8,5.8,0,0,1,2000.11,428Zm79.28-15.5a4.53,4.53,0,0,1-.91.09,215.81,215.81,0,0,0-22.93,1.44c-1.16.13-2.3.27-3.42.43a5.21,5.21,0,0,1-5.85-4.47,5.14,5.14,0,0,1,4.46-5.85c1.21-.16,2.41-.31,3.63-.45a227.89,227.89,0,0,1,24-1.5,5.2,5.2,0,0,1,1,10.31Z"/></g><g class="cls-9"><path class="cls-5" d="M2124.61,847.27a5.21,5.21,0,0,1-2-10.22,216.35,216.35,0,0,0,25.12-6.63,5.2,5.2,0,0,1,3.26,9.88,226.12,226.12,0,0,1-26.33,7Zm-26.37,3.65a5.39,5.39,0,0,1-.56.08,227.19,227.19,0,0,1-27.24.48,5.2,5.2,0,0,1,.44-10.4,216.76,216.76,0,0,0,26-.46,5.2,5.2,0,0,1,1.37,10.3Zm76.81-20.32a5.2,5.2,0,0,1-3.18-9.81,217.75,217.75,0,0,0,22.78-12.52,5.2,5.2,0,0,1,5.55,8.8,224.71,224.71,0,0,1-23.88,13.12A5.38,5.38,0,0,1,2175.05,830.6Zm-129.92,18a5.23,5.23,0,0,1-1.81,0,223.71,223.71,0,0,1-26.57-6.11,5.2,5.2,0,1,1,3-10,212.65,212.65,0,0,0,25.33,5.82,5.2,5.2,0,0,1,.1,10.25ZM2220,802.24a5.21,5.21,0,0,1-4.26-9.15,213.61,213.61,0,0,0,19.1-17.62,5.21,5.21,0,0,1,7.51,7.21,227,227,0,0,1-20,18.47A5.3,5.3,0,0,1,2220,802.24Zm36.8-38.32a5.2,5.2,0,0,1-5.12-8.24A218.36,218.36,0,0,0,2266,734a5.2,5.2,0,0,1,9,5.2,226,226,0,0,1-15,22.73A5.19,5.19,0,0,1,2256.77,763.92Zm26.56-46a5.21,5.21,0,0,1-5.74-7.16,210.87,210.87,0,0,0,8.71-24.48,5.2,5.2,0,0,1,10,2.88,223.57,223.57,0,0,1-9.13,25.69A5.22,5.22,0,0,1,2283.33,717.89Z"/><path class="cls-5" d="M1993.93,833.5a5.14,5.14,0,0,1-3-.34c-4.09-1.78-8.13-3.68-12-5.66a5.21,5.21,0,0,1,4.7-9.29c3.73,1.89,7.59,3.71,11.49,5.4a5.2,5.2,0,0,1-1.12,9.89Z"/></g><path class="cls-5" d="M1985.82,766.63a2.64,2.64,0,0,0,3,.26l27.55-16.41a139.89,139.89,0,0,0,43.11,13.77l12.95,29.31a2.63,2.63,0,0,0,2.63,1.56l38.33-3.22a2.63,2.63,0,0,0,2.33-2l7.88-31.06a139.63,139.63,0,0,0,40.2-20.78l29.9,11.58a2.64,2.64,0,0,0,3-.76l24.82-29.38a2.61,2.61,0,0,0,.25-3l-16.41-27.55a139.71,139.71,0,0,0,13.77-43.11l29.32-13a2.64,2.64,0,0,0,1.56-2.63l-3.22-38.33a2.66,2.66,0,0,0-2-2.34l-31.07-7.87A139.73,139.73,0,0,0,2193,541.5l11.58-29.91a2.64,2.64,0,0,0-.76-3l-29.38-24.82a2.64,2.64,0,0,0-3-.26L2143.83,500a139.27,139.27,0,0,0-43.11-13.77l-12.95-29.32a2.63,2.63,0,0,0-2.63-1.56l-38.32,3.22a2.66,2.66,0,0,0-2.34,2l-7.87,31.06a139.81,139.81,0,0,0-40.21,20.78l-29.9-11.58a2.62,2.62,0,0,0-3,.76l-24.83,29.38a2.65,2.65,0,0,0-.25,3.05l16.41,27.54a140,140,0,0,0-13.77,43.12l-29.31,12.94a2.63,2.63,0,0,0-1.56,2.63l3.22,38.33a2.64,2.64,0,0,0,2,2.34l31.06,7.87a139.5,139.5,0,0,0,20.78,40.2l-11.58,29.91a2.63,2.63,0,0,0,.75,3Z"/><path class="cls-3" d="M2087.28,663.93a39.46,39.46,0,1,1,5.64-1.49A40.43,40.43,0,0,1,2087.28,663.93Zm-12.46-67.17a28.33,28.33,0,0,0-4.11,1.08,29,29,0,0,0,18.83,54.76h0a29,29,0,0,0-14.72-55.84Z"/><path class="cls-3" d="M2098.69,720.89c-3.24.6-6.53,1.05-9.88,1.33a98.72,98.72,0,0,1-20-.34l-.88-.11a5.2,5.2,0,1,1,1.33-10.32,88.06,88.06,0,0,0,18.65.4h0l1-.09a86.75,86.75,0,0,0,40.42-14.39A87.76,87.76,0,0,0,2147,681.7l.13-.15.38-.45a87.08,87.08,0,0,0,20.38-63.89,88.31,88.31,0,0,0-1.2-8.93,87.62,87.62,0,0,0-173.4,23.61c.25,3,.65,5.92,1.19,8.82a87.34,87.34,0,0,0,15,35,5.1,5.1,0,0,1,.89,2.08,5.2,5.2,0,0,1-9.34,4,98,98,0,1,1,97.7,39.13Z"/><path class="cls-10" d="M1236.23,1416.75s-15.67-41.23-34-37.45-38.31,17.83-38.31,17.83l-29.39,39.75s82.5,32.5,111.52,13.87c0,0,84.27,14.56,190.7-2.9-15.41-32.52-24.59-65.09-30-90.36C1352.91,1388,1294.85,1410.79,1236.23,1416.75Z"/><path class="cls-11" d="M1682.63,1117.68s-120.66,152-275.82,239.81c5.39,25.27,14.57,57.84,30,90.36,80.49-13.21,173.65-44.73,252.63-114.77Z"/><path class="cls-12" d="M1833.11,1791.26c-23.6-112.08-47.19-177-126.2-389.42-24.87-66.85-47.45-134.5-36.53-205l12.25-79.17s153.55-52,323.75-2.18c0,0,232.21,100.87,74.49,599.08C2009.78,1794.12,1926.57,1816.78,1833.11,1791.26Z"/><path class="cls-13" d="M1708.77,1016.64l39.82,95.65a19.05,19.05,0,0,0,14.4,11.46c23,3.93,78.47,10.08,114.93-13.89a9.26,9.26,0,0,0,2.48-13l-73.56-105.61Z"/><path class="cls-14" d="M1750,870.3c-1.67,1.57-70.57,136.87-70.57,136.87l78.09,37.7,84.35-118.54S1777.94,844,1750,870.3Z"/><path class="cls-15" d="M1806.33,940.56l-38.95,64.92a12.15,12.15,0,0,1-2.13,2.66c-4.64,4.31-20.5,16.86-32.76-.22-10.46-14.57-20.26-27.81-30.77-33.27a12.44,12.44,0,0,0-16.8,5.53c-6.42,12.72-18.85,38.64-26.66,63.23a12.39,12.39,0,0,0,7.22,15.2c15.81,6.41,47.06,18,74.79,21.82a12.44,12.44,0,0,0,11.78-5c11.93-16.34,45.56-62,57-73.45,10.66-10.62,30.34-6.62,39.2-4.07a12.52,12.52,0,0,0,10-1.31c9-5.42,24.69-18.91,10.33-41.76a12.47,12.47,0,0,1,3.85-16.93c10-6.61,21-19,10.57-39.1-10.52-20.33-29.29-22.16-42.08-20.59a12.94,12.94,0,0,1-13.57-7.55,8.22,8.22,0,0,0-6.43-5.06,12.09,12.09,0,0,1-9.78-14.2c2.25-11.51.56-26.45-17.81-36.55-33.7-18.53-63.21,11.66-70.72,37.14s30.17,43.48,53.87,46.49c17.4,2.21,27,21.21,30.79,31.14A12.49,12.49,0,0,1,1806.33,940.56Z"/><path class="cls-16" d="M1792.68,1021.4s16.76-39.43,35.94-37.82,34.27,20.72,10.5,42.19C1809.56,1052.49,1792.68,1021.4,1792.68,1021.4Z"/><path class="cls-17" d="M1818,2779.06c37.09,3.2,101.45,8.41,152.19,10.64,30.5,1.35,48.06-1.64,58.17-5.69,0,1.14,0,2.22-.09,3.22a10.49,10.49,0,0,1-10,9.91c-95.88,5.35-172.13,1.85-199.27.2a7.47,7.47,0,0,1-6.09-11.23A61.82,61.82,0,0,1,1818,2779.06Z"/><path class="cls-18" d="M1970.18,2789.7c-50.74-2.23-115.1-7.44-152.19-10.64,36.46-44.73,152.19-74.88,152.19-74.88h32.69c22.48,32.4,25.73,63.25,25.48,79.83C2018.24,2788.06,2000.68,2791.05,1970.18,2789.7Z"/><path class="cls-19" d="M2008.37,2650.82l-3.06,60.52a13.81,13.81,0,0,1-11.8,13,53.62,53.62,0,0,1-24.55-2,16.36,16.36,0,0,1-11-12.57l-10.57-58.92Z"/><path class="cls-20" d="M2432.9,2789.25c16.08-2.24,23.36-10.6,26.41-19.53l.06.24c2.37,9.42-3.12,19.19-14.09,23.83-13.25,5.61-27.74,6.57-39,6.11-12.07-.5-23.15-5.5-29.24-13.49l-.09-.12C2389.07,2792.29,2406.08,2793,2432.9,2789.25Z"/><path class="cls-21" d="M2357.08,2650.43h27c41.06-.84,66.84,85.76,75.28,119.29-3,8.93-10.33,17.29-26.41,19.53-26.82,3.74-43.83,3-55.94-3-22.18-29.19-33.18-71.94-38.47-96.89C2332.48,2661,2357.08,2650.43,2357.08,2650.43Z"/><path class="cls-22" d="M2380.57,2594.25l15,59.53a16.14,16.14,0,0,1-8.4,18.31c-8.38,4.3-20.16,8.81-31,7.51a13.52,13.52,0,0,1-11-9l-22-62.63Z"/><path class="cls-23" d="M2398.42,2611.46c-18.62,16.52-79.19,18.7-79.19,18.7-218.19-523.67-309.15-667.82-309.15-667.82,31.51,197.65,6.79,705,6.79,705-36,15.88-82.42,0-82.42,0-2.92-323.59-48.48-671.29-107.24-893.77,147.47-3.32,227.61-35.47,253.21-55.72C2203.35,1916,2398.42,2611.46,2398.42,2611.46Z"/><path class="cls-24" d="M1790.06,1919.9l27.13,168.77a55.61,55.61,0,0,0,61.72,46.22L2285,2085.35a40.11,40.11,0,0,0,35.33-38.93c.87-43.61-.85-121.22-19.15-191.93Z"/><path class="cls-25" d="M1890.28,2123.67a1.16,1.16,0,0,1-.14-2.31l9.19-1.12a1.13,1.13,0,0,1,1.29,1,1.15,1.15,0,0,1-1,1.29l-9.19,1.12Zm-21.48-.53-.26,0a53.8,53.8,0,0,1-9-2.89,1.16,1.16,0,1,1,.9-2.14,51.12,51.12,0,0,0,8.61,2.77,1.16,1.16,0,0,1-.26,2.29Zm52.13-3.21a1.15,1.15,0,0,1-.14-2.3l9.19-1.12a1.16,1.16,0,0,1,1.29,1,1.14,1.14,0,0,1-1,1.28l-9.19,1.12Zm30.65-3.73a1.16,1.16,0,0,1-1.15-1,1.15,1.15,0,0,1,1-1.29l9.19-1.12a1.13,1.13,0,0,1,1.29,1,1.15,1.15,0,0,1-1,1.29l-9.19,1.13Zm30.65-3.74a1.16,1.16,0,0,1-.15-2.31l9.2-1.12a1.13,1.13,0,0,1,1.29,1,1.16,1.16,0,0,1-1,1.29l-9.19,1.12Zm30.65-3.74a1.16,1.16,0,0,1-.15-2.31l9.2-1.12a1.16,1.16,0,0,1,.28,2.3l-9.19,1.12Zm-170.57-.57a1.12,1.12,0,0,1-.83-.35,54.37,54.37,0,0,1-5.93-7.37,1.16,1.16,0,0,1,1.93-1.29,50.59,50.59,0,0,0,5.67,7.05,1.16,1.16,0,0,1-.84,2Zm201.22-3.17a1.16,1.16,0,0,1-.15-2.31l9.2-1.12a1.14,1.14,0,0,1,1.29,1,1.16,1.16,0,0,1-1,1.29l-9.19,1.12Zm30.65-3.74a1.16,1.16,0,0,1-.14-2.31l9.19-1.12a1.16,1.16,0,0,1,.28,2.3l-9.2,1.12Zm30.65-3.74a1.15,1.15,0,0,1-.14-2.3l9.19-1.13a1.16,1.16,0,1,1,.28,2.3l-9.19,1.12Zm30.65-3.74a1.16,1.16,0,0,1-1.15-1,1.14,1.14,0,0,1,1-1.28l9.19-1.12a1.13,1.13,0,0,1,1.29,1,1.15,1.15,0,0,1-1,1.29l-9.19,1.12Zm30.65-3.73a1.16,1.16,0,0,1-.14-2.31l9.19-1.12a1.13,1.13,0,0,1,1.29,1,1.15,1.15,0,0,1-1,1.29l-9.19,1.13Zm30.65-3.74a1.16,1.16,0,0,1-.14-2.31l9.19-1.12a1.15,1.15,0,1,1,.28,2.29l-9.19,1.13Zm30.65-3.74a1.16,1.16,0,0,1-.14-2.31l9.19-1.12a1.15,1.15,0,0,1,1.29,1,1.16,1.16,0,0,1-1,1.29l-9.2,1.12ZM1828.5,2081a1.16,1.16,0,0,1-1.14-1l-1.49-9.16a1.16,1.16,0,0,1,2.29-.37l1.48,9.13a1.16,1.16,0,0,1-.94,1.34Zm429.58-2.23a1.16,1.16,0,0,1-.15-2.31l9.2-1.12a1.14,1.14,0,0,1,1.29,1,1.16,1.16,0,0,1-1,1.29l-9.19,1.12Zm29.89-6.66a1.15,1.15,0,0,1-.57-2.16,37,37,0,0,0,7.18-5.35,1.16,1.16,0,1,1,1.6,1.68,39.58,39.58,0,0,1-7.64,5.68A1.18,1.18,0,0,1,2288,2072.15Zm-464.38-21.59a1.18,1.18,0,0,1-1.15-1l-1.47-9.14a1.16,1.16,0,0,1,1-1.33,1.14,1.14,0,0,1,1.33,1l1.47,9.14a1.16,1.16,0,0,1-1,1.33Zm482.51-2.35a1.35,1.35,0,0,1-.28,0,1.15,1.15,0,0,1-.84-1.4,37.12,37.12,0,0,0,1.05-8.08l0-.83a1.17,1.17,0,0,1,1.16-1.15h0a1.18,1.18,0,0,1,1.15,1.18l0,.85a39.52,39.52,0,0,1-1.13,8.59A1.15,1.15,0,0,1,2306.1,2048.21Zm-487.42-28.14a1.15,1.15,0,0,1-1.14-1l-1.47-9.15a1.16,1.16,0,0,1,2.29-.37l1.47,9.15a1.17,1.17,0,0,1-1,1.33Zm488.66-2.65a1.17,1.17,0,0,1-1.16-1.15c0-3,0-6.08-.11-9.25a1.17,1.17,0,0,1,1.14-1.18,1.12,1.12,0,0,1,1.18,1.14c.06,3.17.09,6.27.11,9.27a1.17,1.17,0,0,1-1.15,1.17Zm-493.56-27.84a1.15,1.15,0,0,1-1.14-1l-1.47-9.15a1.15,1.15,0,0,1,1-1.32,1.14,1.14,0,0,1,1.33,1l1.46,9.14a1.15,1.15,0,0,1-1,1.33Zm492.82-3a1.16,1.16,0,0,1-1.15-1.11c-.13-3-.27-6.12-.44-9.24a1.15,1.15,0,0,1,1.09-1.22,1.1,1.1,0,0,1,1.22,1.09c.17,3.13.31,6.23.44,9.27a1.16,1.16,0,0,1-1.11,1.21Zm-497.72-27.44a1.16,1.16,0,0,1-1.14-1l-1.47-9.15a1.17,1.17,0,0,1,1-1.33,1.15,1.15,0,0,1,1.32,1l1.48,9.15a1.15,1.15,0,0,1-1,1.32Zm495.84-3.39a1.15,1.15,0,0,1-1.15-1.06c-.25-3.05-.51-6.12-.8-9.22a1.16,1.16,0,0,1,1.05-1.26,1.12,1.12,0,0,1,1.25,1q.43,4.65.81,9.24a1.16,1.16,0,0,1-1.07,1.25ZM1804,1928.61a1.15,1.15,0,0,1-1.14-1l-1.66-10.33,4.76-.61a1.13,1.13,0,0,1,1.3,1,1.16,1.16,0,0,1-1,1.3l-2.4.31,1.28,8a1.15,1.15,0,0,1-.95,1.33Zm497.6-3.62a1.15,1.15,0,0,1-1.14-1c-.39-3-.79-6.1-1.21-9.18a1.16,1.16,0,1,1,2.29-.31c.43,3.08.83,6.14,1.21,9.2a1.16,1.16,0,0,1-1,1.29Zm-474-8.72a1.16,1.16,0,0,1-.14-2.31l9.18-1.18a1.12,1.12,0,0,1,1.3,1,1.16,1.16,0,0,1-1,1.3l-9.19,1.18Zm30.63-3.92a1.16,1.16,0,0,1-.15-2.31l9.19-1.17a1.12,1.12,0,0,1,1.3,1,1.16,1.16,0,0,1-1,1.29l-9.19,1.18Zm30.63-3.92a1.16,1.16,0,0,1-.15-2.31l9.19-1.18a1.13,1.13,0,0,1,1.29,1,1.15,1.15,0,0,1-1,1.29l-9.19,1.18Zm30.62-3.92a1.16,1.16,0,0,1-.15-2.31l9.19-1.17a1.11,1.11,0,0,1,1.3,1,1.16,1.16,0,0,1-1,1.29l-9.19,1.18Zm30.63-3.92a1.16,1.16,0,0,1-.15-2.31l9.19-1.17a1.13,1.13,0,0,1,1.3,1,1.16,1.16,0,0,1-1,1.29l-9.19,1.18Zm30.63-3.92a1.16,1.16,0,0,1-.15-2.31l9.19-1.17a1.14,1.14,0,0,1,1.3,1,1.17,1.17,0,0,1-1,1.3l-9.19,1.17Zm316.34-2.22a1.14,1.14,0,0,1-1.14-1q-.81-4.53-1.69-9.08a1.16,1.16,0,1,1,2.27-.44c.59,3,1.16,6.08,1.69,9.12a1.14,1.14,0,0,1-.93,1.34A.71.71,0,0,1,2297,1894.45Zm-285.71-1.7a1.16,1.16,0,0,1-.15-2.31l9.19-1.17a1.1,1.1,0,0,1,1.29,1,1.17,1.17,0,0,1-1,1.3l-9.19,1.17Zm30.62-3.92a1.15,1.15,0,0,1-.15-2.3l9.19-1.18a1.11,1.11,0,0,1,1.3,1,1.16,1.16,0,0,1-1,1.3l-9.19,1.17Zm30.63-3.92a1.16,1.16,0,0,1-.15-2.31l9.19-1.17a1.12,1.12,0,0,1,1.3,1,1.17,1.17,0,0,1-1,1.3l-9.19,1.17Zm30.63-3.92a1.15,1.15,0,0,1-.15-2.3l9.19-1.18a1.14,1.14,0,0,1,1.3,1,1.16,1.16,0,0,1-1,1.3l-9.19,1.17Zm30.63-3.92a1.15,1.15,0,0,1-.15-2.3l9.19-1.18a1.13,1.13,0,0,1,1.29,1,1.16,1.16,0,0,1-1,1.3l-9.19,1.17Zm30.62-3.91a1.16,1.16,0,0,1-.15-2.31l9.19-1.18a1.1,1.1,0,0,1,1.3,1,1.16,1.16,0,0,1-1,1.3l-9.19,1.18Zm30.63-3.92a1.16,1.16,0,0,1-.15-2.31l9.19-1.18a1.11,1.11,0,0,1,1.3,1,1.16,1.16,0,0,1-1,1.3l-9.18,1.18Zm30.62-3.92a1.16,1.16,0,0,1-.14-2.31l9.18-1.18a1.12,1.12,0,0,1,1.3,1,1.16,1.16,0,0,1-1,1.29l-9.19,1.18Zm65-1.1a1.16,1.16,0,0,1-1.13-.88q-.72-3-1.49-6l-1,.13a1.14,1.14,0,0,1-1.3-1,1.16,1.16,0,0,1,1-1.3l3-.39.26,1q.9,3.49,1.76,7a1.17,1.17,0,0,1-.86,1.4Zm-34.41-2.82a1.16,1.16,0,0,1-.14-2.31l9.18-1.18a1.13,1.13,0,0,1,1.3,1,1.16,1.16,0,0,1-1,1.3l-9.19,1.18Z"/><path class="cls-26" d="M1893.25,1781.66l-.45-13.23a10.14,10.14,0,0,1,6.87-6.84c12.38-3.63,43.29-11.18,59.83-1.83l4.2,14.9Z"/><path class="cls-27" d="M1931.13,1764a18.35,18.35,0,0,1-8.75,1.11,8,8,0,0,1-7-6.88l-5.24-40.93,20.83-2.67,5.23,40.9A8,8,0,0,1,1931.13,1764Z"/><path class="cls-28" d="M2095,1755.85l-.45-13.23a10.13,10.13,0,0,1,6.87-6.84c12.39-3.63,43.29-11.18,59.83-1.83l4.2,14.9Z"/><path class="cls-29" d="M2132.86,1738.22a18.37,18.37,0,0,1-8.75,1.11,8,8,0,0,1-7-6.89l-5.79-45.24,20.83-2.66,5.79,45.21A8,8,0,0,1,2132.86,1738.22Z"/><path class="cls-30" d="M1909.31,1727.63l223-36.07a10.88,10.88,0,0,0,9.18-10.19,92.15,92.15,0,0,0-2.93-28.48,26,26,0,0,0-27.84-18.66c-41.92,4.36-148.28,18-203.94,48.69a20.62,20.62,0,0,0-10.55,15.79c-.71,6.35-.66,14.69,2.37,22.81A9.73,9.73,0,0,0,1909.31,1727.63Z"/><path class="cls-31" d="M1903.81,1718.59a3.08,3.08,0,0,1-3-2.39,55.13,55.13,0,0,1-.85-17.81,20.89,20.89,0,0,1,12.29-16.18c12.1-5.3,35.33-14.65,55-17.73a3.09,3.09,0,1,1,1,6.11c-19.67,3.07-43.94,13.1-53.46,17.27a14.71,14.71,0,0,0-8.66,11.37,49.57,49.57,0,0,0,.75,15.58,3.08,3.08,0,0,1-2.31,3.7A2.79,2.79,0,0,1,1903.81,1718.59Z"/><path class="cls-32" d="M1788.68,1789.86c72.24-10.18,384.85-53.52,477.18-54.19a18.66,18.66,0,0,1,17.75,12.3c8.48,23.6,26.51,78.65,32.39,134.75a16.33,16.33,0,0,1-11.3,17.15l-202.53,65.83-73.73,9.43-226.78-15.66a17.43,17.43,0,0,1-16-14.27c-5-28-15.73-93.69-13.56-137.17A19.29,19.29,0,0,1,1788.68,1789.86Z"/><path class="cls-25" d="M2027.91,1958.18h-.08l-9.24-.64a1.17,1.17,0,0,1-1.08-1.24,1.25,1.25,0,0,1,1.24-1.07l9.24.64a1.16,1.16,0,0,1-.08,2.31Zm8.44-1.08a1.16,1.16,0,0,1-.15-2.31l9.19-1.17a1.1,1.1,0,0,1,1.3,1,1.17,1.17,0,0,1-1,1.3l-9.19,1.17Zm-39.24-1H1997l-9.24-.64a1.15,1.15,0,0,1-1.08-1.23,1.24,1.24,0,0,1,1.23-1.08l9.25.64a1.16,1.16,0,0,1-.08,2.31Zm-30.81-2.13h-.08l-9.24-.63a1.16,1.16,0,0,1-1.07-1.24,1.27,1.27,0,0,1,1.23-1.08l9.24.64a1.16,1.16,0,0,1-.08,2.31Zm100.68-.74a1.16,1.16,0,0,1-.15-2.31l9.19-1.17a1.11,1.11,0,0,1,1.3,1,1.17,1.17,0,0,1-1,1.3l-9.19,1.17Zm-131.48-1.38h-.08l-9.24-.63a1.16,1.16,0,0,1-1.07-1.24,1.26,1.26,0,0,1,1.23-1.08l9.24.64a1.16,1.16,0,0,1-.08,2.32Zm-30.8-2.13h-.08l-9.24-.64a1.17,1.17,0,0,1-1.08-1.24,1.25,1.25,0,0,1,1.24-1.07l9.24.64a1.16,1.16,0,0,1-.08,2.31Zm192.91-.41a1.16,1.16,0,0,1-.15-2.31l.6-.07,8-2.63a1.17,1.17,0,0,1,1.46.74,1.15,1.15,0,0,1-.74,1.46l-9.05,2.8Zm-223.72-1.72h-.08l-9.24-.64a1.14,1.14,0,0,1-1.07-1.23,1.23,1.23,0,0,1,1.23-1.08l9.24.64a1.17,1.17,0,0,1,1.08,1.23A1.15,1.15,0,0,1,1873.89,1947.54Zm-30.8-2.13H1843l-9.24-.63a1.17,1.17,0,0,1-1.08-1.24,1.24,1.24,0,0,1,1.24-1.08l9.24.64a1.16,1.16,0,0,1-.08,2.31Zm-30.81-2.12h-.07l-9.87-.68-.16-.88a1.27,1.27,0,0,1,.9-1.48,1.16,1.16,0,0,1,.92.16l8.36.57a1.16,1.16,0,0,1-.08,2.32Zm314.72-3.47a1.16,1.16,0,0,1-.36-2.26l8.81-2.86a1.18,1.18,0,0,1,1.46.75,1.16,1.16,0,0,1-.74,1.46l-8.81,2.86A1.49,1.49,0,0,1,2127,1939.82Zm29.36-9.54a1.16,1.16,0,0,1-.36-2.26l8.81-2.86a1.19,1.19,0,0,1,1.47.74,1.16,1.16,0,0,1-.75,1.46l-8.81,2.86A1.13,1.13,0,0,1,2156.36,1930.28Zm-356.71-9.21a1.16,1.16,0,0,1-1.14-1q-.71-4.39-1.43-9.17a1.16,1.16,0,1,1,2.29-.35c.48,3.17,1,6.23,1.42,9.16a1.14,1.14,0,0,1-1,1.32Zm386.08-.33a1.17,1.17,0,0,1-1.1-.8,1.15,1.15,0,0,1,.74-1.46l8.81-2.87a1.17,1.17,0,0,1,1.46.75,1.15,1.15,0,0,1-.74,1.45l-8.81,2.87A1.13,1.13,0,0,1,2185.73,1920.74Zm29.36-9.55a1.16,1.16,0,0,1-.36-2.26l8.81-2.86a1.17,1.17,0,0,1,1.46.74,1.15,1.15,0,0,1-.74,1.46l-8.81,2.86A1.13,1.13,0,0,1,2215.09,1911.19Zm29.37-9.54a1.16,1.16,0,0,1-.36-2.26l8.81-2.86a1.16,1.16,0,1,1,.71,2.2l-8.8,2.86A1.18,1.18,0,0,1,2244.46,1901.65Zm29.36-9.54a1.16,1.16,0,0,1-.36-2.26l8.81-2.87a1.16,1.16,0,0,1,.72,2.2l-8.81,2.87A1.13,1.13,0,0,1,2273.82,1892.11Zm-478.62-1.62a1.16,1.16,0,0,1-1.15-1c-.39-3-.78-6.1-1.15-9.2a1.16,1.16,0,1,1,2.3-.28c.37,3.09.76,6.16,1.15,9.18a1.15,1.15,0,0,1-1,1.3Zm502.07-11.73a1.16,1.16,0,0,1-1.15-1c-.38-3.06-.79-6.12-1.24-9.16a1.15,1.15,0,0,1,1-1.31,1.12,1.12,0,0,1,1.31,1c.45,3.07.87,6.13,1.24,9.21a1.15,1.15,0,0,1-1,1.29Zm-505.48-19a1.15,1.15,0,0,1-1.15-1.06c-.28-3.09-.54-6.18-.77-9.25a1.16,1.16,0,0,1,2.31-.17q.35,4.59.76,9.22a1.15,1.15,0,0,1-1,1.25Zm500.61-11.51a1.15,1.15,0,0,1-1.13-.94q-.9-4.57-1.84-9.06a1.16,1.16,0,0,1,2.26-.48c.64,3,1.25,6,1.85,9.1a1.16,1.16,0,0,1-.92,1.36ZM1789.93,1829a1.16,1.16,0,0,1-1.16-1.14c-.06-2.5-.09-5-.09-7.39v-1.91a1.17,1.17,0,0,1,1.16-1.15h0a1.16,1.16,0,0,1,1.15,1.17v1.89q0,3.6.1,7.34A1.17,1.17,0,0,1,1790,1829Zm495.77-10.83a1.17,1.17,0,0,1-1.13-.88q-1.14-4.56-2.3-9a1.14,1.14,0,0,1,.82-1.41,1.16,1.16,0,0,1,1.41.82c.78,2.93,1.56,5.93,2.32,9a1.15,1.15,0,0,1-.84,1.4A1,1,0,0,1,2285.7,1818.12Zm-484.35-10.67a1.16,1.16,0,0,1-.16-2.31l9.18-1.28a1.16,1.16,0,1,1,.32,2.29l-9.17,1.29Zm30.6-4.25a1.14,1.14,0,0,1-1.14-1,1.16,1.16,0,0,1,1-1.31l9.18-1.26a1.14,1.14,0,0,1,1.31,1,1.16,1.16,0,0,1-1,1.3l-9.18,1.27Zm30.61-4.19a1.16,1.16,0,0,1-.15-2.31l9.18-1.24a1.16,1.16,0,1,1,.31,2.29l-9.18,1.25Zm30.61-4.13a1.16,1.16,0,0,1-.16-2.31l9.19-1.23a1.15,1.15,0,0,1,1.3,1,1.16,1.16,0,0,1-1,1.3l-9.19,1.23Zm30.62-4.07a1.16,1.16,0,0,1-.15-2.31l9.19-1.21a1.16,1.16,0,1,1,.3,2.3l-9.19,1.21Zm353.72-2.48a1.15,1.15,0,0,1-1.11-.82c-.92-3.08-1.83-6-2.72-8.85a1.16,1.16,0,0,1,.76-1.45,1.14,1.14,0,0,1,1.45.75q1.34,4.24,2.73,8.88a1.16,1.16,0,0,1-.78,1.44A1,1,0,0,1,2277.51,1788.33Zm-323.09-1.53a1.15,1.15,0,0,1-.15-2.3l9.19-1.19a1.16,1.16,0,0,1,.3,2.3l-9.19,1.18Zm30.63-3.92a1.16,1.16,0,0,1-.15-2.31l9.19-1.16a1.13,1.13,0,0,1,1.3,1,1.15,1.15,0,0,1-1,1.29l-9.19,1.17Zm30.63-3.85a1.16,1.16,0,0,1-.14-2.31l9.19-1.14a1.12,1.12,0,0,1,1.29,1,1.15,1.15,0,0,1-1,1.29l-9.19,1.14Zm30.65-3.76a1.16,1.16,0,0,1-.14-2.31l9.2-1.1a1.11,1.11,0,0,1,1.28,1,1.16,1.16,0,0,1-1,1.29l-9.19,1.1Zm30.67-3.65a1.16,1.16,0,0,1-1.15-1,1.14,1.14,0,0,1,1-1.28l9.2-1.07a1.13,1.13,0,0,1,1.29,1,1.15,1.15,0,0,1-1,1.28l-9.2,1.07Zm30.67-3.51a1.16,1.16,0,0,1-.13-2.31l9.21-1a1.15,1.15,0,0,1,1.28,1,1.16,1.16,0,0,1-1,1.28l-9.2,1Zm30.7-3.35a1.16,1.16,0,0,1-.12-2.31l9.21-1a1.16,1.16,0,0,1,.24,2.3l-9.21,1Zm30.72-3.14a1.16,1.16,0,0,1-.11-2.31l9.22-.89a1.13,1.13,0,0,1,1.26,1,1.14,1.14,0,0,1-1,1.26l-9.22.89ZM2268,1759a1.17,1.17,0,0,1-1.1-.78l-1.18-3.31-4.2.06h0a1.16,1.16,0,0,1,0-2.32l4.55-.06a1.81,1.81,0,0,1,1.74,1.14l1.33,3.72a1.17,1.17,0,0,1-.71,1.48A1.33,1.33,0,0,1,2268,1759Zm-68.13-.18a1.16,1.16,0,0,1-.1-2.31l9.24-.77a1.16,1.16,0,1,1,.18,2.31l-9.22.77Zm30.78-2.38a1.16,1.16,0,0,1-.07-2.31c3.21-.21,6.3-.4,9.25-.57a1.1,1.1,0,0,1,1.23,1.09,1.17,1.17,0,0,1-1.09,1.22c-3,.17-6,.36-9.24.57Z"/><path class="cls-33" d="M2099.19,1997.54l-64.59,8.26a16.82,16.82,0,0,1-18.48-12.54l-15.41-61.19a16.8,16.8,0,0,1,14.21-20.74l77.6-9.93a16.82,16.82,0,0,1,19,16l2.41,62.86A16.83,16.83,0,0,1,2099.19,1997.54Z"/><path class="cls-34" d="M2089.78,1987.12l-49.16,6.29a12.8,12.8,0,0,1-14.06-9.54l-11.73-46.58a12.78,12.78,0,0,1,10.82-15.78l59.06-7.56a12.79,12.79,0,0,1,14.43,12.16L2101,1974A12.8,12.8,0,0,1,2089.78,1987.12Z"/><path class="cls-35" d="M2051.36,1491.81c15.24,63,15.64,124.55,13.32,147a17.44,17.44,0,0,1-16.14,15.65c-9.64.67-22.74,1.56-34.46,2.23-12.87.75-27.17-7.39-36.72-14.19a5.75,5.75,0,0,0-8.47,7.26c4.7,9.19,12.85,16.42,20.95,22.57,4.86,3.7,21.05,10.28,19.92,17.56a13,13,0,0,1-3.23,6.09c-9,10.79-22.6,16.55-36,20.67a9.94,9.94,0,0,0-4.65,2.38c-.34,8.68,26.38,18.33,33.27,20.62a76.57,76.57,0,0,0,32.14,3.73c26.88-2.83,51.7-21.38,66.18-43.75,38.7-59.8,58.71-132,66-187.25C2127.46,1476.36,2073.1,1485.48,2051.36,1491.81Z"/><path class="cls-36" d="M2163.46,1518c28.72-216.9-138.43-383.68-138.43-383.68l-99.45,115.94c75.5,94.11,111.39,180.35,127.79,248.08C2075.11,1492.05,2127.46,1482,2163.46,1518Z"/><path class="cls-37" d="M2051,1497.32a6.16,6.16,0,0,1-6-4.71c-20.21-83.5-62.81-166.16-126.6-245.68a6.16,6.16,0,1,1,9.6-7.71c64.94,81,108.34,165.23,129,250.49a6.19,6.19,0,0,1-6,7.61Z"/><path class="cls-38" d="M704.11,2783.15a11.77,11.77,0,0,0-.33-3.21c-16-63.41-95.37-102.9-95.37-102.9L577,2679.5c-18.09,55.89-15.76,90.17-12.86,105.44.08.43.21.83.32,1.25C590.36,2788.5,643.77,2790,704.11,2783.15Z"/><path class="cls-39" d="M564.41,2786.19c1.41,5.09,5.17,9.06,10,10.08,36.91,7.76,95.58,1.51,120.21-1.71,5.44-.71,9.41-5.73,9.5-11.41C643.77,2790,590.36,2788.5,564.41,2786.19Z"/><path class="cls-40" d="M564.3,2632.65l13.32,64.14c1,4.7,4.59,8.21,9,8.62a88.86,88.86,0,0,0,20.65-.32c6.87-1,11.65-8,10.44-15.49l-9.26-56.95Z"/><path class="cls-41" d="M840.35,2785.37c-34.75-1-52.71-5.06-62-8.86,0,3.46,0,7,.11,10.62.12,3.89,3,7,6.54,7l190.76-1.23c6.09,0,9.64-7.1,7-12.68C957.75,2782.25,894.05,2786.88,840.35,2785.37Z"/><path class="cls-42" d="M982.77,2780.19a8.65,8.65,0,0,0-.76-1.44c-16.85-23.54-59.75-70.41-144.54-90.74l-40.67-1.29s-18.11,31.48-18.45,89.79c9.29,3.8,27.25,7.89,62,8.86C894.05,2786.88,957.75,2782.25,982.77,2780.19Z"/><path class="cls-43" d="M787.45,2627c.64,3,9.1,48.64,12.38,66.33a8.84,8.84,0,0,0,7.95,7.51c7,.39,18.2.44,27.86-2.19,5.21-1.41,8.71-6.72,8.34-12.62l-4.55-72.19Z"/><path class="cls-44" d="M756.62,1784.33s56,384.47,96.33,842c.76,8.52-6,15.93-14.4,17.69-12.34,2.6-30.47,5.69-45.48,5.27A16.86,16.86,0,0,1,777,2635.21c-13.76-80.67-111.91-513.6-137.67-608.88,0,0-29.59,404.74-20.13,614.72a10,10,0,0,1-8.78,10.35,167.4,167.4,0,0,1-36.51-.1A13.33,13.33,0,0,1,562.05,2640c-9.8-68.27-66.19-474.64-63.8-767.37.14-16.51,19.37-152.15,19.37-152.15Z"/><path class="cls-45" d="M509.21,1806.49a15.81,15.81,0,0,1-10.38-13.33c-7.45-72.19-43.47-519.77,184-703.88,0,0,13-34.13,120.25,49.76s49.81,171.81,24.14,293.08c-31.06,146.75-85.55,266.71-61.44,357a12.52,12.52,0,0,1-7.67,15C674.8,1834.84,591.84,1835.85,509.21,1806.49Z"/><path class="cls-46" d="M771.51,955.17c-.07,6.37-90.89,135.37-90.89,135.37s16.31,32.1,94.13,58.17l67.17-138.12Z"/><path class="cls-47" d="M843,881.26s32.31,74.23,34.48,113.19,10.57,64.24-34.48,72.09-83-14.6-103.56-53.41c0,0-32.22-59.8-25-84.29S843,881.26,843,881.26Z"/><path class="cls-48" d="M754.85,985.23l2.57-1.13a6.19,6.19,0,0,0,3-8.5c-6.36-12.27-18.74-40.4-2.74-47,20.62-8.46,102.29-25.11,119.91-54.09,16.94-27.85,1.93-63.81-20.62-74a3.1,3.1,0,0,0-4.06,1.32l-1.88,3.56a3.07,3.07,0,0,1-5.65-.58h0a3,3,0,0,0-5.51-.79c-5.42,8.67-20,22.73-59.15,29.94-55.58,10.26-92.32,32.75-93.24,71.16a3.06,3.06,0,0,1-4.73,2.52c-4.11-2.5-10.67-3.67-19.45,3.71-15.26,12.83-9,46.12,24.44,73.51a3,3,0,0,1-.14,4.9c-6.07,4-15.11,13.35,8.32,25.87,24.24,13,42.33,11.89,49.3,10.74a3,3,0,0,0,2.47-3.68L740.28,989a3.06,3.06,0,0,1,3-3.72Z"/><path class="cls-49" d="M756.25,992.35s-12.33-47.42-33.59-34.12,11,53.13,28.13,54.9Z"/><path class="cls-50" d="M837.54,1178l6.26,168.17a463.33,463.33,0,0,0,50.84,14.44c10.09-32.47,32.29-72.32,50.48-102C878.31,1235,837.54,1178,837.54,1178Z"/><path class="cls-51" d="M1171.11,1175.1c-91.65,99-165.84,104.78-226,83.52-18.19,29.63-40.39,69.48-50.48,102,244.75,54,302.38-171,302.38-171Z"/><path class="cls-52" d="M1189.69,1164.59s10.56-11.33,30.1-7.77,36.93,10.35,49.1,0,16.46,3.54,16.46,3.54l-36.46,27.71Z"/><path class="cls-53" d="M1167.89,1184s7.23-30.24,29-26.1,71.29,31.06,84,26.1,29.06-16.82,37.43-12.63l-14.74,18.33s37.89-21.86,44.41-8.43l-63,35.48S1192.79,1207.48,1167.89,1184Z"/><path class="cls-54" d="M735.8,1398.06s172.3,144.31,358.37,81.34a44.36,44.36,0,0,1,34.93,2.63l53.49,28.26a47.76,47.76,0,0,0,63.28-17.72c7.43-12.44,13.78-26.63,15-40.24L1156.24,1410l7.72-12.83s-51.11-4.33-64.48,32.29c0,0-97.34,40.49-261.49-140.06C838,1289.36,763.5,1352.69,735.8,1398.06Z"/><path class="cls-55" d="M726.52,1396.57a2.86,2.86,0,0,1-1.64-.51c-72.56-49-106.68-128.13-107-128.93a2.95,2.95,0,1,1,5.43-2.3c.33.77,33.83,78.33,104.89,126.35a2.95,2.95,0,0,1-1.66,5.39Z"/><path class="cls-56" d="M834.59,1286.91a2.93,2.93,0,0,1-2.48-1.36c-.22-.34-22.39-34.84-64.6-110.43-13-23.25-30-38-50.71-43.75-34.22-9.56-67.21,8.79-67.53,9a3,3,0,0,1-2.92-5.13c1.42-.8,35.35-19.78,72-9.53,22.26,6.21,40.54,21.87,54.33,46.56,42.11,75.4,64.19,109.78,64.41,110.12a2.95,2.95,0,0,1-2.48,4.55Z"/></g></g></g></svg>